<svg width="217" height="129" viewBox="0 0 217 129" fill="none" xmlns="http://www.w3.org/2000/svg">
<path d="M115.811 13.8364C117.51 9.53137 118.526 3.70437 114.725 1.06537C111.85 -0.930627 107.923 0.243361 104.703 1.61536C78.7189 12.6894 56.9919 33.1574 43.8589 58.1114C41.6319 62.3424 35.0659 72.2454 37.1819 77.1014C40.1349 83.8774 49.8399 78.3824 54.3819 76.4454C67.3019 70.9354 79.1639 62.9844 89.2609 53.2284C100.731 42.1444 109.95 28.6894 115.811 13.8364Z" fill="#FFE7C5"/>
<path d="M111.116 76.5903C129.522 77.7364 148.273 76.8893 165.901 71.4733C183.53 66.0573 200.041 55.7714 210.685 40.7113C214.322 35.5653 217.336 29.1294 215.442 23.1184C213.973 18.4574 209.729 15.0613 205.095 13.5073C195.308 10.2243 184.706 14.1403 175.197 18.1583C158.71 25.1243 142.383 32.6323 127.02 41.8573C119.262 46.5163 111.753 51.6073 104.693 57.2743C100.697 60.4813 85.8899 70.4383 85.5219 75.7153C85.1699 80.7663 91.5169 77.0143 94.5689 76.5673C100.028 75.7673 105.64 76.2493 111.116 76.5903Z" fill="#CEBBB6"/>
<path d="M127.697 122.13C130.93 122.648 134.252 123.095 137.458 122.431C140.664 121.767 143.779 119.783 144.942 116.723C146.148 113.55 145.008 109.859 142.87 107.222C140.732 104.585 137.735 102.808 134.756 101.18C113.138 89.3634 88.3438 82.5454 63.6158 83.4874C58.8378 83.6694 49.2497 83.1244 45.0907 85.7244C39.7577 89.0574 45.4368 92.0164 49.5208 94.3904C60.8708 100.988 72.8757 106.523 85.1987 111.037C98.9677 116.078 113.218 119.81 127.697 122.13Z" fill="#FFE7C5"/>
<path d="M174.188 128.297C174.23 128.229 174.263 128.155 174.283 128.076C174.551 127.965 174.61 127.487 174.296 127.327C173.661 127.004 173.02 126.693 172.375 126.389C171.852 125.991 171.328 125.595 170.804 125.198C170.859 125.005 170.827 124.785 170.644 124.608C162.779 116.961 154.122 110.042 144.863 104.157C136.106 98.5914 126.693 93.9844 116.825 90.7504C107.687 87.7564 98.1629 85.9364 88.5439 85.6274C83.5589 85.4674 78.5919 85.7694 73.6439 86.3784C68.3379 87.0304 63.0659 87.9494 57.7429 88.4694C56.6519 88.5764 55.5439 88.6534 54.4309 88.7154C47.0689 88.4924 39.6189 87.4604 32.7839 84.7094C32.6149 84.6204 32.4419 84.5374 32.2739 84.4474C32.2169 84.4174 32.1669 84.4194 32.1219 84.4334C31.4149 84.1354 30.7149 83.8154 30.0219 83.4784C29.8949 83.3944 29.7639 83.3164 29.6379 83.2294C28.9969 82.7844 28.3729 82.3124 27.7589 81.8294C30.1809 81.7504 32.6019 81.6404 35.0229 81.5174C35.1749 81.6094 35.3659 81.6414 35.5589 81.5394C35.5909 81.5224 35.6209 81.5023 35.6529 81.4854C36.0709 81.4633 36.4889 81.4434 36.9069 81.4224C38.9869 81.5724 41.0999 81.4184 43.1819 81.1084C57.4289 80.4534 71.7179 80.0184 85.9379 78.8564C86.0509 79.0284 86.2359 79.1484 86.4669 79.1194C87.9649 78.9334 89.4539 78.7024 90.9329 78.4124C94.0769 78.1104 97.2219 77.7684 100.359 77.3474C104.335 78.1314 108.369 78.7194 112.375 79.2704C117.03 79.9104 121.71 80.3724 126.408 80.5154C135.121 80.7804 143.989 79.8754 152.227 76.9024C160.394 73.9544 167.322 68.8114 173.34 62.6294C179.503 56.2984 184.709 49.1214 190.356 42.3454C195.905 35.6874 201.91 29.4854 209.296 24.8594C210.112 24.3484 210.946 23.8684 211.791 23.4084C211.811 23.4004 211.831 23.3934 211.851 23.3854C211.931 23.3554 211.995 23.3144 212.045 23.2664C212.058 23.2594 212.071 23.2514 212.084 23.2444C212.13 23.2194 212.159 23.1854 212.18 23.1474C212.883 23.0854 213.587 23.0234 214.29 22.9664C215.071 22.9034 214.975 21.7064 214.195 21.7554C205.902 22.2764 197.636 23.6724 189.582 25.6964C181.53 27.7194 173.654 30.4424 166.072 33.8254C158.502 37.2024 151.221 41.2304 144.357 45.8794C141.33 47.9294 138.389 50.0954 135.474 52.2974C137.564 50.0044 139.521 47.5924 141.411 45.1324C146.158 38.9524 150.566 32.4634 155.994 26.8414C157.476 25.3064 159.034 23.8444 160.688 22.4964C162.218 21.2504 163.843 20.1214 165.482 19.0234C165.631 19.0124 165.779 18.9984 165.928 18.9904C166.401 18.9654 166.373 18.3714 166.007 18.2284C166.041 18.2204 166.075 18.2124 166.108 18.2034C166.486 18.1034 166.355 17.4664 165.965 17.5284C164.577 17.7484 163.194 18.0224 161.816 18.3184C158.415 18.6664 155.052 19.6064 151.872 20.8614C149.916 21.4424 147.976 22.0724 146.062 22.7804C139.719 25.1294 133.685 28.3054 128.457 32.6264C123.323 36.8694 118.978 41.9604 114.912 47.2104C110.782 52.5454 106.901 58.0734 102.59 63.2674C98.3749 68.3474 93.6959 73.1274 88.1429 76.7494C87.6559 77.0674 87.1589 77.3694 86.6609 77.6704C74.4809 78.7134 62.2439 79.1584 50.0419 79.7964C49.7349 79.8124 49.4279 79.8304 49.1209 79.8464C51.3239 79.2404 53.4859 78.4894 55.5889 77.5934C61.9929 74.8624 67.8329 70.9354 73.0669 66.3674C78.7859 61.3764 83.7339 55.5964 88.2759 49.5314C92.7749 43.5244 96.8819 37.2384 100.969 30.9474C105.039 24.6834 109.093 18.4024 113.503 12.3704C114.063 11.6054 114.622 10.8424 115.161 10.0624C115.559 9.48738 114.771 8.79337 114.311 9.35437C114.135 9.56837 113.971 9.79237 113.798 10.0094C113.689 9.96337 113.559 9.97438 113.45 10.1014C112.316 11.4284 111.145 12.7194 109.842 13.8854C108.558 15.0344 107.186 16.0824 105.78 17.0764C102.953 19.0754 99.9959 20.8814 97.1519 22.8544C94.2969 24.8354 91.5859 27.0184 89.3079 29.6554C86.9849 32.3434 85.0679 35.3444 82.9489 38.1874C80.8279 41.0324 78.4399 43.5754 75.6429 45.7674C72.9409 47.8844 70.0219 49.7024 67.0919 51.4824C61.2089 55.0574 55.2629 58.5874 50.7089 63.8534C46.2409 69.0194 42.8639 75.3884 37.1599 79.3674C36.5969 79.7604 36.0099 80.1144 35.4109 80.4484C35.4049 80.4494 35.3989 80.4514 35.3919 80.4524C35.3159 80.4654 35.2649 80.5054 35.2259 80.5534C35.2019 80.5664 35.1789 80.5804 35.1549 80.5934C32.2519 80.7404 29.3479 80.8794 26.4439 80.9884C26.2489 80.9954 26.0529 80.9994 25.8579 81.0064C25.7849 80.9544 25.7089 80.9054 25.6359 80.8534C25.4389 80.7134 25.2189 80.8504 25.1759 81.0274C18.6109 81.2314 11.9669 81.0904 5.54792 79.5874C3.79192 79.1764 2.05792 78.6704 0.35792 78.0664C0.0589205 77.9604 -0.157078 78.3974 0.146922 78.5214C6.52892 81.1434 13.4499 81.8664 20.2969 81.9364C22.1979 81.9554 24.0999 81.9344 26.0029 81.8884C26.0299 81.9064 26.0579 81.9234 26.0839 81.9414C26.6299 82.3784 27.1939 82.7934 27.7509 83.2174C34.0139 90.0404 41.2009 96.0134 48.9459 101.081C57.3889 106.605 66.5109 111.083 76.0509 114.369C85.5499 117.641 95.4589 119.752 105.477 120.543C116.813 121.438 128.171 120.437 139.52 120.639C147.136 120.775 154.909 121.512 162.241 123.698C164.37 124.529 166.503 125.353 168.637 126.172C169.194 126.451 169.753 126.725 170.301 127.024C171.332 127.586 172.345 128.181 173.34 128.805C173.776 129.076 174.149 128.71 174.188 128.297ZM89.3179 77.4424C89.3839 77.3984 89.4479 77.3504 89.5139 77.3064C89.5109 77.3454 89.5069 77.3844 89.5129 77.4224C89.4479 77.4284 89.3829 77.4364 89.3179 77.4424ZM113.243 63.4164C110.729 65.6024 108.182 67.7504 105.625 69.8854C104.369 70.9344 103.119 71.9914 101.854 73.0294C101.201 73.5644 100.549 74.1014 99.9019 74.6454C99.8439 74.6384 99.7839 74.6413 99.7219 74.6624C99.2389 74.8214 98.7589 74.9874 98.2799 75.1534C99.8679 74.0164 101.324 72.6604 102.632 71.3734C107.418 66.6594 111.972 61.7164 116.522 56.7774C121.07 51.8404 125.63 46.9074 130.442 42.2244C134.959 37.8284 139.7 33.6504 144.801 29.9414C148.671 27.1274 152.76 24.5904 157.052 22.4664C155.019 23.9384 153.058 25.5104 151.161 27.1534C146.863 30.8774 142.882 34.9494 138.916 39.0184C130.666 47.4784 122.163 55.6624 113.243 63.4164ZM166.455 56.9784C160.168 62.1024 153.343 66.4534 145.893 69.6844C138.82 72.7514 131.375 74.8754 123.74 75.9514C117.772 76.7914 111.756 76.9704 105.763 76.5394C114.465 75.1284 123.061 73.1114 131.351 70.0824C145.213 65.0184 157.356 56.7664 169.263 48.2104C179.321 40.9824 189.412 33.4994 200.581 28.0704C195.557 31.2024 190.912 34.9544 186.481 38.8714C179.738 44.8334 173.438 51.2864 166.455 56.9784ZM205.816 26.1864C200.733 29.6704 196.295 34.0834 192.22 38.7014C186.44 45.2524 181.267 52.3194 175.376 58.7734C169.575 65.1284 163.035 70.9124 155.087 74.4124C147.176 77.8954 138.477 79.2184 129.878 79.2524C121.982 79.2834 114.133 78.2504 106.347 76.9764C111.144 77.3184 115.974 77.2414 120.753 76.7594C128.361 75.9924 135.866 74.2044 143.016 71.4964C150.389 68.7034 157.319 64.8024 163.611 60.0594C170.817 54.6274 177.329 48.3184 184.006 42.2664C190.631 36.2624 197.574 30.4444 205.555 26.3164C205.642 26.2714 205.729 26.2304 205.816 26.1864ZM206.589 24.0174H206.591C201.508 25.9304 196.626 28.5304 191.993 31.2534C185.717 34.9414 179.746 39.1164 173.841 43.3664C161.981 51.9024 150.205 60.8374 136.715 66.6834C125.393 71.5894 113.322 74.3794 101.132 76.0854C100.992 76.0674 100.852 76.0564 100.713 76.0374C100.667 76.0314 100.621 76.0234 100.575 76.0174C100.295 75.9744 100.015 75.9314 99.7359 75.8884C99.7739 75.8764 99.8109 75.8624 99.8489 75.8494C103.067 75.3534 106.258 74.4424 109.332 73.4434C113.089 72.2224 116.748 70.7314 120.306 69.0164C127.635 65.4834 134.566 61.1524 141.248 56.5254C148.537 51.4784 155.622 46.1394 163.004 41.2264C169.765 36.7264 176.796 32.5984 184.309 29.4794C191.398 26.5354 198.904 24.4734 206.589 24.0174ZM141.881 49.0554C148.722 44.2134 155.942 39.9314 163.519 36.3434C170.605 32.9884 177.97 30.2234 185.508 28.0694C178.711 30.7744 172.275 34.3154 166.113 38.2444C158.636 43.0114 151.534 48.3294 144.314 53.4704C137.541 58.2934 130.662 63.0304 123.299 66.9194C116.79 70.3584 109.918 73.1844 102.723 74.7854C105.179 73.7874 107.567 72.6014 109.884 71.3544C113.7 69.3014 117.35 66.9594 120.905 64.4854C128.032 59.5264 134.795 54.0704 141.881 49.0554ZM161.309 21.0134C159.673 22.2324 158.132 23.5864 156.666 24.9844C153.867 27.6544 151.338 30.5904 148.928 33.6114C144.053 39.7194 139.629 46.2074 134.293 51.9364C132.839 53.4974 131.319 54.9994 129.705 56.3944C128.052 57.8244 126.299 59.1374 124.603 60.5154C124.588 60.5274 124.58 60.5444 124.568 60.5584C124.163 60.8584 123.761 61.1604 123.354 61.4574C116.516 66.4594 109.368 71.1054 101.504 74.3284C102.836 73.3084 104.14 72.2454 105.436 71.2004C107.744 69.3374 110.02 67.4334 112.277 65.5094C116.734 61.7094 121.103 57.8044 125.387 53.8094C129.7 49.7874 133.912 45.6614 138.055 41.4654C142.018 37.4514 145.949 33.3954 150.151 29.6264C152.513 27.5084 154.946 25.4694 157.51 23.5984C158.746 22.6944 160.013 21.8304 161.309 21.0134ZM152.211 21.7684C154.953 20.9454 157.727 20.2234 160.511 19.5534C160.923 19.4874 161.334 19.4154 161.748 19.3634C161.587 19.4544 161.424 19.5414 161.265 19.6394C160.669 20.0044 160.079 20.3804 159.495 20.7664C157.863 21.4744 156.26 22.2604 154.699 23.0824C151.974 24.5174 149.338 26.1164 146.786 27.8394C141.63 31.3224 136.823 35.2964 132.261 39.5214C127.436 43.9914 122.895 48.7584 118.407 53.5634C113.842 58.4504 109.337 63.3954 104.642 68.1584C102.666 70.1634 100.699 72.2264 98.4539 73.9364C96.5249 75.4054 94.2909 76.6754 91.8309 76.8914C91.7719 76.8964 91.7129 76.8944 91.6539 76.8984C94.2999 75.2244 96.8459 73.4554 99.2269 71.4074C101.737 69.2484 104.106 66.9314 106.374 64.5204C111.013 59.5914 115.22 54.2874 119.528 49.0734C123.855 43.8374 128.297 38.6684 133.272 34.0314C137.617 29.9824 142.427 26.3824 147.749 23.7144C149.204 22.9844 150.695 22.3404 152.211 21.7684ZM113.911 50.3894C117.902 45.0864 122.048 39.8384 126.938 35.3254C131.926 30.7214 137.703 27.2174 143.973 24.6474C144.211 24.5504 144.451 24.4614 144.69 24.3664C141.272 26.3654 138.062 28.7184 135.074 31.3174C129.911 35.8074 125.401 40.9464 121.043 46.2054C116.701 51.4454 112.502 56.8084 107.949 61.8704C105.689 64.3834 103.342 66.8184 100.865 69.1184C98.3709 71.4344 95.7129 73.5484 93.0069 75.6094C92.3859 76.0824 91.7309 76.5034 91.0709 76.9194C90.7589 76.9204 90.4479 76.9034 90.1379 76.8724C94.4129 73.9034 98.1939 70.1744 101.585 66.2784C105.991 61.2184 109.881 55.7444 113.911 50.3894ZM38.1999 79.8574C38.3659 79.7344 38.5259 79.6054 38.6889 79.4784C38.6159 79.5644 38.5389 79.6474 38.4659 79.7344C38.4499 79.7534 38.4439 79.7734 38.4339 79.7934C38.3549 79.8134 38.2779 79.8384 38.1999 79.8574ZM101.711 27.6294C97.6829 33.8404 93.6879 40.0784 89.3589 46.0864C84.9859 52.1554 80.2569 57.9764 74.9119 63.2194C69.8409 68.1934 64.1209 72.5534 57.7149 75.6644C53.4339 77.7434 48.8709 79.2994 44.1779 80.1124C42.3809 80.2114 40.5839 80.3084 38.7859 80.4044C43.7719 79.3084 48.4979 77.2444 52.8839 74.6114C58.3989 71.3004 63.3679 67.1604 68.0709 62.7924C73.4159 57.8284 78.5249 52.6044 83.5029 47.2754C88.6869 41.7254 93.6779 35.9924 98.5929 30.2044C100.8 27.6044 102.985 24.9854 105.159 22.3584C104.002 24.1104 102.854 25.8684 101.711 27.6294ZM106.813 18.6754C104.412 21.5754 101.998 24.4654 99.5669 27.3404C94.7519 33.0344 89.8699 38.6724 84.8389 44.1774C79.8479 49.6394 74.7639 55.0174 69.4469 60.1654C64.8709 64.5964 60.0389 68.8084 54.7379 72.3564C49.9779 75.5424 44.8419 78.0314 39.3299 79.5474C43.2679 75.1374 48.6739 72.5804 53.7139 69.6504C59.0899 66.5254 63.7819 62.4554 68.1949 58.1034C72.7179 53.6434 77.0729 49.0084 81.5099 44.4634C85.9849 39.8784 90.4389 35.2724 94.9159 30.6894C97.4229 28.1224 99.9169 25.5434 102.41 22.9634C103.657 21.6734 104.907 20.3874 106.157 19.0994C106.811 18.4254 107.478 17.7594 108.13 17.0794C107.691 17.6114 107.253 18.1444 106.813 18.6754ZM49.6469 66.7444C51.8069 63.9884 54.1819 61.4844 56.9469 59.3274C59.6829 57.1934 62.6369 55.3634 65.5989 53.5644C71.5079 49.9764 77.5269 46.4024 81.9929 41.0104C84.2589 38.2744 86.1599 35.2634 88.3089 32.4394C90.4729 29.5964 92.9509 27.1384 95.8099 24.9964C99.0429 22.5744 102.56 20.4914 105.863 18.1454C104.809 19.2504 103.757 20.3574 102.704 21.4624C100.494 23.7804 98.2669 26.0804 96.0589 28.3994C91.6439 33.0374 87.1999 37.6484 82.7629 42.2654C78.3269 46.8814 73.8959 51.5044 69.3869 56.0494C64.9579 60.5134 60.3419 64.7964 55.0329 68.2044C50.9149 70.8474 46.3179 72.9484 42.4279 75.9564C45.0399 73.0724 47.2709 69.7774 49.6469 66.7444ZM83.8789 86.5434C93.5789 86.3494 103.278 87.7834 112.592 90.4604C122.46 93.2974 131.811 97.5814 140.611 102.847C148.807 107.753 156.463 113.521 163.644 119.814C157.918 115.561 152.113 111.415 146.101 107.572C137.346 101.976 128.106 97.0524 118.331 93.4884C108.877 90.0414 99.0149 87.9794 88.9439 87.7274C80.9419 87.5274 72.9649 88.2464 64.9769 88.5914C71.2569 87.7104 77.5209 86.6704 83.8789 86.5434ZM56.3109 89.5964C65.4699 89.7664 74.6159 88.8234 83.7739 88.6994C89.0119 88.6294 94.2429 88.8644 99.4249 89.6594C104.371 90.4184 109.246 91.6194 113.999 93.1794C123.757 96.3824 132.986 101.018 141.728 106.377C144.075 107.816 146.387 109.307 148.676 110.834C146.114 109.438 143.513 108.11 140.873 106.863C133.245 103.261 125.313 100.309 117.198 98.0044C108.967 95.6674 100.553 94.1114 92.0739 93.0044C83.5829 91.8964 75.0479 91.2204 66.5169 90.5114C63.0429 90.2224 59.5699 89.9294 56.0979 89.6164C56.1689 89.6104 56.2399 89.6014 56.3109 89.5964ZM51.7949 89.8274C55.5469 90.2104 59.3059 90.5284 63.0579 90.8534C71.5519 91.5904 80.0539 92.2944 88.5139 93.3684C96.9409 94.4384 105.33 95.8854 113.55 98.0504C121.715 100.201 129.679 103.057 137.372 106.536C142.316 108.772 147.14 111.276 151.821 114.022C149.566 112.927 147.269 111.922 144.949 111.005C136.353 107.611 127.358 105.36 118.281 103.69C108.684 101.924 98.9899 100.787 89.3189 99.5174C79.9669 98.2894 70.6219 96.9844 61.4199 94.8784C55.0009 93.4094 48.6929 91.5744 42.5849 89.1754C45.6209 89.7004 48.7139 89.8854 51.7949 89.8274ZM144.437 119.697C133.088 119.136 121.734 120.227 110.382 119.854C100.193 119.52 90.0719 117.813 80.3189 114.848C70.7039 111.924 61.4569 107.778 52.8639 102.569C44.9399 97.7664 37.7109 92.0274 31.0569 85.6114C32.9199 86.8954 34.8379 88.1024 36.7919 89.2514C42.8239 93.7954 49.2539 97.7944 55.9889 101.224C64.4509 105.534 73.3599 108.964 82.5259 111.443C92.1459 114.044 101.977 115.427 111.908 116.112C122.239 116.824 132.613 117.127 142.874 118.623C146.044 119.085 149.215 119.665 152.349 120.401C149.719 120.054 147.073 119.827 144.437 119.697ZM40.9779 91.5894C44.2809 93.3274 47.6739 94.8884 51.1179 96.2734C60.5509 100.066 70.4069 102.335 80.4489 103.789C90.6349 105.264 100.908 106.096 111.05 107.878C121.315 109.681 131.36 112.518 141.225 115.852C143.819 116.728 146.393 117.654 148.958 118.603C148.335 118.487 147.712 118.376 147.087 118.271C137.008 116.587 126.786 116.335 116.606 115.72C106.561 115.113 96.5799 114.143 86.7689 111.824C77.4439 109.62 68.3579 106.424 59.6989 102.322C53.1859 99.2354 46.9409 95.6264 40.9779 91.5894ZM160.779 121.624C160.485 121.51 160.19 121.395 159.897 121.281C155.082 119.399 150.241 117.581 145.361 115.875C135.618 112.468 125.69 109.531 115.557 107.532C105.478 105.543 95.2329 104.658 85.0549 103.35C74.9379 102.05 64.9139 100.219 55.2899 96.7594C50.6049 95.0754 46.0339 93.0694 41.6139 90.7794C39.3539 89.6074 37.1589 88.3384 34.9979 87.0134C36.1309 87.4814 37.2809 87.9034 38.4469 88.2404C38.8629 88.3604 39.2819 88.4654 39.7009 88.5704C45.4789 91.0774 51.4889 93.0444 57.5779 94.6654C66.5369 97.0514 75.7459 98.5424 84.9189 99.8254C94.5789 101.176 104.272 102.315 113.883 103.996C123.07 105.603 132.181 107.715 140.958 110.903C148.92 113.795 156.61 117.583 163.468 122.579C162.58 122.24 161.682 121.927 160.779 121.624Z" fill="#5F5C7C"/>
</svg>
