<svg width="236" height="412" viewBox="0 0 236 412" fill="none" xmlns="http://www.w3.org/2000/svg">
<path d="M171.877 102.685C177.417 89.7247 179.641 75.5515 180.174 61.4671C180.511 52.5667 179.133 41.8761 171.143 37.9419C165.728 35.2766 158.93 36.9854 154.237 40.7804C149.543 44.5754 146.598 50.1013 144.251 55.6613C135.787 75.7084 133.49 98.7643 138.18 120.051C144.335 147.994 166.88 114.378 171.877 102.685Z" fill="#FFE7C5"/>
<path d="M89.3458 99.5374C83.3727 92.938 76.4905 86.6702 67.9691 84.0982C59.4477 81.5263 48.9718 83.6244 44.0292 91.0294C39.8463 97.2956 40.6074 106.032 44.6704 112.378C48.7334 118.723 55.5772 122.882 62.7615 125.153C70.47 127.592 93.2238 133.359 99.8218 127.177C107.955 119.559 94.3669 105.086 89.3458 99.5374Z" fill="#FFE7C5"/>
<path d="M215.499 111.511C218.921 105.42 221.847 97.1751 217.107 92.0401C214.463 89.1749 210.093 88.4153 206.286 89.2623C202.479 90.1093 199.127 92.3214 196.024 94.6831C179.096 107.568 167.046 126.524 161.954 147.131C160.232 154.1 156.889 167.216 168.409 166.676C177.367 166.255 186.8 151.669 192.058 145.401C200.897 134.862 208.762 123.503 215.499 111.511Z" fill="#FFE7C5"/>
<path d="M119.938 255.697C115.199 253.688 109.612 252.139 105.059 254.544C100.156 257.133 98.3793 263.65 99.7534 269.02C101.127 274.392 104.952 278.781 109 282.569C116.539 289.623 154.435 317.352 160.006 297.875C164.978 280.493 132.52 261.032 119.938 255.697Z" fill="#FFE7C5"/>
<path d="M210.663 208.414C211.19 204.326 211.557 200.097 210.395 196.142C209.234 192.187 206.218 188.525 202.171 187.742C198.223 186.978 194.151 189.118 191.582 192.209C189.012 195.301 187.676 199.214 186.544 203.072C183.461 213.573 181.557 224.503 181.524 235.466C181.506 241.048 181.518 263.573 188.369 265.655C199.769 269.115 209.595 216.692 210.663 208.414Z" fill="#CEBBB6"/>
<path d="M133.091 168.132C126.219 159.138 117.011 151.53 106.094 148.544C103.908 147.946 101.495 147.555 99.4397 148.511C96.6648 149.801 95.4314 153.264 95.8667 156.294C96.302 159.322 98.0522 161.987 99.906 164.423C109.18 176.609 121.936 185.554 135.449 192.478C142.472 196.076 149.681 199.409 145.199 188.77C142.144 181.52 137.859 174.372 133.091 168.132Z" fill="#CEBBB6"/>
<path d="M99.9968 87.788C107.588 71.8661 113.021 54.9152 116.098 37.5466C117.876 27.5105 118.788 16.7725 114.616 7.47377C112.728 3.2686 108.683 -0.93508 104.212 0.182842C100.49 1.1142 98.6138 5.20535 97.49 8.87451C94.4249 18.8751 93.0923 29.4043 93.5691 39.8535C91.7153 35.5225 89.7697 31.0582 86.3241 27.8466C82.8785 24.6335 77.4932 23.0018 73.3547 25.251C69.7626 27.2025 68.0271 31.5706 68.0967 35.6573C68.1663 39.744 69.727 43.6426 71.3188 47.4066C76.2658 59.1114 81.9694 70.9022 91.32 79.508" fill="#CEBBB6"/>
<path d="M235.315 326.104C221.665 325.922 208.25 331.627 198.684 341.33C198.336 341.682 198.009 342.055 197.673 342.418C202.943 332.41 208.053 322.269 211.629 311.522C213.826 304.918 215.427 298.099 216.049 291.158C216.114 290.429 215.338 290.059 214.762 290.429C208.46 294.497 203.648 300.483 200.297 307.142C196.514 314.658 194.695 323.002 193.921 331.337C193.449 336.423 193.357 341.536 193.4 346.641C193.401 346.825 193.465 346.971 193.551 347.1C193.259 347.663 192.969 348.228 192.679 348.791C192.315 349.346 191.947 349.9 191.607 350.472C191.487 350.673 191.469 350.879 191.509 351.067C190.88 352.297 190.261 353.532 189.654 354.774C189.581 354.874 189.497 354.964 189.429 355.066C189.365 355.162 189.355 355.264 189.375 355.359C188.37 357.437 187.4 359.529 186.529 361.661C185.218 364.873 184.165 368.225 183.728 371.676C183.543 373.148 183.497 374.635 183.562 376.117C182.964 374.469 182.403 372.805 181.861 371.132C181.868 371.095 181.876 371.058 181.874 371.021C181.859 370.141 181.405 369.189 180.989 368.351C178.251 359.341 176.253 350.051 174.651 340.746C174.617 340.033 174.466 339.303 174.281 338.592C174.255 338.428 174.223 338.265 174.197 338.1C172.367 327.001 170.858 315.846 169.345 304.696C177.303 293.588 183.458 281.125 188.317 268.392C188.639 267.547 188.937 266.692 189.248 265.843C189.415 265.977 189.632 266.063 189.901 266.044C196.689 265.579 203.405 263.094 209.528 260.26C212.652 258.815 215.708 257.22 218.74 255.593C221.419 254.155 224.206 252.787 226.649 250.963C229.052 249.17 231.091 246.783 231.467 243.712C231.541 243.109 231.032 242.717 230.476 242.747C230.284 242.757 230.093 242.776 229.902 242.788C229.702 242.621 229.418 242.565 229.147 242.779C229.117 242.803 229.086 242.825 229.056 242.849C217.147 243.773 205.433 248.505 196.389 256.336C194.198 258.233 192.162 260.29 190.415 262.594C194.51 250.731 197.453 238.456 199.114 226.018C200.21 217.81 200.685 209.59 200.673 201.314C200.672 200.522 199.817 200.132 199.258 200.738C193.637 206.828 189.31 214.129 186.68 221.989C183.88 230.356 183.02 239.301 184.154 248.051C184.806 253.085 186.119 258.033 188.035 262.733C188.123 262.948 188.266 263.075 188.426 263.158C185.78 270.689 182.675 278.057 179.119 285.21C176.071 291.336 172.67 297.276 169.136 303.132C168.727 300.122 168.32 297.112 167.902 294.105C165.699 278.236 163.494 262.369 161.291 246.5C160.641 241.818 160.013 237.117 159.385 232.413C159.99 228.043 160.684 223.689 161.695 219.39C162.695 215.135 163.965 210.947 165.443 206.834C165.749 207.029 166.152 207.086 166.536 206.847C178.754 199.26 188.665 187.532 193.84 174.084C195.421 169.975 196.376 165.415 194.775 161.162C194.601 160.696 193.889 160.479 193.508 160.838C193.122 161.204 192.75 161.584 192.368 161.954C189.541 163.128 186.839 164.762 184.372 166.525C181.551 168.543 178.962 170.88 176.641 173.456C171.727 178.913 168.258 185.496 166.287 192.556C165.714 194.611 165.279 196.693 165 198.809C164.86 199.878 164.756 200.953 164.691 202.029C164.636 202.946 164.559 203.883 164.642 204.8C163.183 208.787 161.94 212.856 160.936 216.993C160.046 220.661 159.3 224.388 158.812 228.143C157.726 220.049 156.608 211.947 155.316 203.876C155.318 203.794 155.318 203.711 155.319 203.63C155.456 203.43 155.513 203.174 155.391 202.876C155.371 202.83 155.349 202.784 155.33 202.738C155.364 201.034 155.433 199.33 155.582 197.633C155.861 194.424 156.388 191.238 157.093 188.096C158.512 181.776 160.74 175.645 163.477 169.781C169.133 157.662 177.012 146.81 185.324 136.395C189.541 131.111 193.88 125.927 198.12 120.664C200.254 118.016 202.367 115.351 204.434 112.652C205.78 110.893 208.447 108.107 207.232 105.649C205.792 102.732 201.584 105.22 199.622 106.142C196.959 107.394 194.389 108.851 191.94 110.481C187.068 113.725 182.674 117.698 178.951 122.214C170.923 131.955 166.194 144.33 165.587 156.933C165.512 158.491 165.505 160.049 165.547 161.608C165.551 161.765 165.597 161.885 165.661 161.985C164.79 163.567 163.944 165.164 163.146 166.789C158.398 176.45 155.034 186.928 154.286 197.688C154.167 197.004 154.058 196.318 153.936 195.636C154.32 191.661 154.065 187.604 153.674 183.649C153.214 179.001 152.435 174.389 151.535 169.808C149.712 160.542 147.413 151.363 146.049 142.009C145.231 136.405 144.829 130.756 144.854 125.109C151.369 118.873 156.883 111.67 161.204 103.753C163.395 99.737 165.258 95.5526 166.771 91.2349C168.302 86.8639 169.618 82.33 170.156 77.7191C170.75 72.6418 170.322 67.2773 167.67 62.7982C167.396 62.3347 166.826 62.0771 166.346 62.4591C159.781 67.7126 155.198 74.9621 151.869 82.5995C148.97 89.2522 146.866 96.2766 145.448 103.411C145.23 101.351 144.931 99.3002 144.552 97.2643C143.04 89.1575 140.28 81.2698 136.358 74.0129C134.14 69.9085 131.56 66.0054 128.639 62.3673C128.22 61.8461 127.274 62.0549 127.214 62.7626C127.174 63.235 127.158 63.7058 127.129 64.1767C127.108 64.2256 127.096 64.2818 127.111 64.3514C127.112 64.3603 127.115 64.3692 127.117 64.3781C126.126 80.8449 131.023 96.9785 137.485 111.959C139.258 116.071 141.062 120.268 143.244 124.191C142.953 124.582 143.018 125.064 143.278 125.386C143.278 129.52 143.498 133.652 143.967 137.76C145.051 147.239 147.309 156.527 149.292 165.845C151.017 173.954 152.453 182.092 152.965 190.355C150.722 178.603 147.941 166.977 144.158 155.623C136.83 133.63 125.113 112.299 107.662 96.7667C107.816 96.6838 107.919 96.5091 107.84 96.29C105.848 90.8647 103.917 85.4365 102.466 79.835C102.109 78.458 101.785 77.0735 101.478 75.6861C101.57 75.6225 101.649 75.541 101.712 75.4492C101.93 75.3989 102.123 75.2508 102.217 74.9591C107.496 58.5871 110.111 41.3385 110.052 24.1388C110.037 19.8877 109.963 15.342 107.757 11.5648C107.48 11.0909 106.794 10.8762 106.421 11.4004C99.946 20.5244 98.0522 32.0857 97.4347 43.0221C97.0216 50.3574 97.297 57.7342 98.2447 65.0237C97.1697 62.1437 95.9052 59.3245 94.4393 56.6237C91.3076 50.8564 87.4075 45.4548 82.7788 40.7921C81.6461 39.6505 80.4793 38.543 79.2711 37.4813C78.131 36.4789 76.7746 35.4424 75.1592 35.8022C73.4683 36.1783 72.9322 37.7552 73.372 39.2996C73.8088 40.8366 74.4795 42.3409 75.1044 43.8098C77.6364 49.7533 80.9502 55.3518 84.8859 60.472C89.2139 66.1046 94.3327 71.1123 100.059 75.313C100.248 76.1733 100.429 77.0365 100.636 77.8924C102.149 84.1053 104.105 90.308 106.884 96.0797C105.245 94.6508 103.577 93.256 101.837 91.9338C95.8874 87.4132 89.5041 83.7085 82.8395 80.6094C82.8721 80.4554 82.8366 80.2822 82.6797 80.1415C79.3688 77.1431 75.7826 74.4557 72.4081 71.5254C71.4056 70.6547 70.415 69.7752 69.4304 68.8868C64.2154 56.4445 64.1828 40.5152 52.7489 31.5304C50.0615 29.4175 46.915 27.9264 43.5168 27.4333C42.9941 27.3578 42.5366 27.845 42.6136 28.3588C43.8766 36.7676 47.3384 44.7086 52.0322 51.7581C56.2493 58.0896 61.4524 63.6881 67.0554 68.8187C67.2197 69.2244 67.3944 69.6212 67.6121 69.9914C67.7661 70.2549 68.0593 70.2757 68.2518 70.138C68.3702 70.212 68.505 70.249 68.6427 70.2535C69.0706 70.634 69.4941 71.0175 69.9249 71.3921C72.9929 74.0603 76.1631 76.7093 79.4843 79.0932C62.7332 71.9178 44.3416 68.4159 26.3408 66.0705C22.9692 65.6307 19.611 65.308 16.2188 65.0947C15.7775 65.0666 15.702 65.6929 16.1358 65.7744C29.5213 68.2723 43.003 69.8966 56.2211 73.2978C64.0881 75.3219 71.8735 77.882 79.3274 81.1647C77.7519 81.1499 76.1735 81.1558 74.5995 81.0877C71.65 80.9618 68.7019 80.7205 65.7686 80.4036C59.9554 79.7773 54.1822 78.8385 48.3957 78.0019C37.9109 76.4857 27.1922 75.347 16.6467 76.9936C11.0023 77.8746 5.47487 79.5833 0.474572 82.3715C-0.0599578 82.6691 -0.253935 83.6478 0.486411 83.8655C14.0185 87.8485 28.5515 88.2291 42.273 84.9375C46.1228 84.0135 49.9075 82.8127 53.5826 81.3424C54.049 81.1558 54.1437 80.722 54.0208 80.3518C57.3213 80.8315 60.6218 81.3009 63.9326 81.6785C67.1457 82.0457 70.3677 82.3329 73.6015 82.4292C76.2505 82.5077 78.9631 82.5758 81.5987 82.1967C85.8128 84.1586 89.9158 86.3486 93.8396 88.8495C110.417 99.4098 122.913 114.802 131.967 132.037C127.33 129.742 122.41 127.894 117.532 126.204C112.409 124.429 107.182 122.928 101.865 121.85C99.6217 121.395 97.3592 121.032 95.0878 120.748C94.9575 120.49 94.728 120.293 94.466 120.237C93.4013 114.882 91.0248 109.772 88.0279 105.239C84.8429 100.421 80.7399 96.1715 76.0535 92.797C73.3602 90.8573 70.4654 89.2063 67.4078 87.9122C66.8747 87.6857 66.0737 88.1758 66.2543 88.8125C69.4052 99.9073 75.7041 109.855 84.5734 117.264C85.8009 118.29 87.0728 119.263 88.3862 120.176C88.3921 120.181 88.3981 120.184 88.404 120.188C82.9032 119.95 77.3862 120.288 71.9609 121.361C62.8872 123.157 54.086 126.914 47.0142 132.955C46.1362 133.706 45.2863 134.489 44.4689 135.305C43.6738 136.098 42.8756 136.975 42.6565 138.117C42.464 139.115 42.9319 140.114 43.8514 140.566C44.8849 141.073 46.1139 140.785 47.1889 140.604C52.7474 139.674 58.2956 138.63 63.7593 137.234C73.8399 134.659 83.765 130.792 92.0124 124.314C92.2419 124.133 92.4552 123.933 92.6802 123.748C92.6995 123.741 92.7158 123.745 92.735 123.736C93.3006 123.474 93.8648 123.212 94.4304 122.95C94.5518 122.95 94.6703 122.891 94.7606 122.796C94.8761 122.743 94.9901 122.689 95.1056 122.636C95.2507 122.568 95.341 122.455 95.4047 122.328C96.5952 122.476 97.7842 122.637 98.9702 122.837C109.289 124.577 119.211 128.046 128.856 132.034C130.037 132.522 131.214 133.007 132.412 133.452C132.517 133.491 132.61 133.492 132.697 133.48C135.437 138.836 137.864 144.353 139.966 149.958C145.471 164.625 149.022 179.859 151.747 195.274C150.691 193.312 149.585 191.377 148.445 189.485C145.846 185.174 142.987 181.023 139.892 177.053C133.756 169.184 126.692 162.034 118.88 155.824C114.455 152.308 109.785 149.152 104.847 146.405C104.492 146.209 104.151 146.804 104.492 147.026C104.514 147.041 104.536 147.055 104.56 147.072C104.509 147.23 104.484 147.398 104.49 147.631C104.501 148.093 104.52 148.555 104.558 149.016C104.637 149.968 104.786 150.911 104.967 151.85C105.318 153.683 105.808 155.485 106.437 157.243C106.935 158.635 107.536 159.989 108.188 161.318C108.162 161.375 108.155 161.446 108.19 161.501C108.256 161.602 108.343 161.692 108.416 161.79C109.348 163.627 110.409 165.401 111.606 167.076C113.789 170.126 116.41 172.88 119.361 175.196C122.572 177.716 126.185 179.56 129.957 181.091C134.566 182.961 139.378 184.449 143.656 187.042C144.057 187.284 144.536 187.289 144.891 186.997C145.273 187.595 145.662 188.191 146.034 188.796C148.538 192.868 150.697 197.09 152.783 201.372C154.846 214.004 156.455 226.723 158.21 239.322C158.364 240.428 158.512 241.535 158.666 242.642C158.254 241.909 157.82 241.189 157.355 240.492C155.512 237.733 153.248 235.293 150.831 233.023C150.84 232.657 150.636 232.305 150.147 232.26C150.093 232.256 150.039 232.249 149.986 232.244C149.472 231.776 148.955 231.311 148.433 230.855C145.146 227.983 141.771 225.193 138.354 222.476C135.046 219.846 131.664 217.301 128.058 215.092C124.075 212.652 119.866 210.571 115.302 209.492C115.019 209.425 114.883 209.776 115.012 209.982C115.006 209.994 114.993 210.001 114.991 210.015C114.846 210.642 115.119 211.195 115.41 211.763C115.755 212.437 116.12 213.099 116.51 213.747C117.275 215.015 118.107 216.238 119.017 217.405C120.785 219.673 122.792 221.764 124.979 223.629C129.418 227.416 134.643 230.324 140.21 232.071C143.256 233.027 146.497 233.74 149.7 233.866C151.542 235.633 153.3 237.487 154.837 239.532C156.235 241.39 157.446 243.386 158.367 245.523C158.815 246.565 159.208 247.64 159.498 248.739C159.507 248.772 159.51 248.804 159.519 248.837C162.089 267.542 164.6 286.261 167.239 304.959C167.137 305.039 167.045 305.136 166.981 305.264C166.662 305.913 166.488 306.613 166.438 307.327C163.229 302.05 158.636 297.868 154.07 293.768C144.558 285.229 135.7 275.97 125.908 267.741C123.166 265.437 120.353 263.216 117.44 261.132C114.562 259.073 111.598 257.13 108.387 255.63C108.336 255.607 108.287 255.612 108.241 255.626C108.019 255.395 107.532 255.439 107.535 255.829C107.576 260.383 108.864 264.861 110.712 269.001C112.578 273.184 115.116 277.069 118.121 280.522C124.527 287.883 133.008 293.09 142.138 296.382C144.783 297.335 147.482 298.129 150.211 298.8C151.555 299.13 152.906 299.426 154.265 299.69C155.619 299.953 156.999 300.285 158.379 300.23C160.388 302.259 162.285 304.389 163.907 306.76C165.872 309.627 167.34 312.828 168.293 316.167C168.776 317.856 169.128 319.581 169.34 321.326C169.478 322.454 169.536 323.59 169.616 324.721C169.438 324.582 169.125 324.66 169.18 324.94C169.664 327.416 170.465 329.82 171.201 332.235C172.62 341.581 174.28 351.062 176.578 360.367C176.327 359.969 176.089 359.561 175.83 359.169C174.594 357.289 173.279 355.46 171.866 353.71C170.899 352.513 169.882 351.218 168.742 350.11C168.767 349.885 168.7 349.647 168.486 349.454C168.258 349.251 168.042 349.037 167.818 348.829C167.312 346.46 166.659 344.116 165.98 341.804C164.979 338.388 163.848 335.001 162.547 331.686C159.923 324.999 156.732 318.543 153.036 312.385C150.948 308.906 148.678 305.538 146.261 302.279C145.865 301.746 144.875 302.121 145.033 302.807C148.203 316.534 151.584 330.685 159.95 342.304C158.561 341.035 157.142 339.802 155.679 338.617C150.392 334.333 144.614 330.673 138.546 327.601C131.899 324.235 124.952 321.52 117.976 318.927C110.175 316.028 102.293 313.245 94.7073 309.807C94.7191 309.766 94.7176 309.724 94.731 309.683C94.9101 309.128 94.1165 308.784 93.884 309.333C93.2414 310.851 93.6679 312.45 94.4082 313.85C95.1204 315.197 96.0133 316.47 96.915 317.696C98.7703 320.217 100.916 322.52 103.232 324.623C107.915 328.879 113.346 332.302 119.071 334.976C125.611 338.031 132.524 340.187 139.498 342.006C146.216 343.76 153.218 344.906 159.599 347.737C162.867 349.188 165.958 351.243 168.431 353.846C169.43 355.093 170.394 356.368 171.333 357.663C172.112 358.981 172.749 360.389 173.191 361.897C173.341 362.407 174.117 362.165 174.089 361.674C175.877 364.421 177.536 367.251 179.04 370.16C179.126 370.328 179.249 370.433 179.382 370.511C183.034 382.292 188.015 393.58 195.255 403.676C197.066 406.2 199.018 408.596 201.116 410.887C201.954 411.802 203.477 410.645 202.65 409.687C195.067 400.911 189.506 391.041 185.278 380.575C184.714 377.852 184.637 374.959 184.961 372.223C185.332 369.096 186.233 366.069 187.387 363.145C188.543 360.211 189.892 357.346 191.321 354.517C192.232 353.806 193.151 353.109 194.148 352.512C195.596 351.646 197.139 350.926 198.699 350.285C201.932 348.957 205.297 347.996 208.577 346.795C215.336 344.321 221.654 340.662 227.194 336.067C230.351 333.449 233.253 330.524 235.853 327.353C236.193 326.928 235.914 326.111 235.315 326.104ZM189.238 260.824C189.198 260.724 189.167 260.62 189.128 260.518C188.964 245.218 190.615 229.968 194.863 215.238C195.614 212.634 196.474 210.072 197.383 207.525C197.324 207.881 197.266 208.236 197.201 208.586C196.857 210.419 196.521 212.253 196.188 214.089C195.505 217.853 194.86 221.622 194.214 225.392C192.922 232.933 191.747 240.493 190.767 248.082C190.239 252.167 189.726 256.252 189.392 260.357C189.337 260.511 189.289 260.669 189.238 260.824ZM225.635 249.496C223.356 251.207 220.76 252.478 218.256 253.818C212.482 256.911 206.578 259.863 200.338 261.905C197.13 262.955 193.871 263.626 190.542 264.109C190.806 263.841 191.072 263.579 191.337 263.312C202.154 260.638 212.522 255.922 221.803 249.801C224.252 248.185 226.661 246.468 228.932 244.601C229.125 244.586 229.317 244.562 229.511 244.549C228.895 246.602 227.349 248.207 225.635 249.496ZM226.476 244.852C222.7 247.748 218.826 250.48 214.685 252.866C209.645 255.768 204.357 258.21 198.913 260.253C197.381 260.827 195.828 261.347 194.263 261.833C195.042 261.52 195.816 261.193 196.591 260.851C198.665 259.938 200.71 258.959 202.724 257.918C206.68 255.872 210.506 253.571 214.174 251.042C216.283 249.588 218.336 248.056 220.337 246.456C220.531 246.302 220.578 246.102 220.55 245.912C220.553 245.912 220.554 245.911 220.557 245.911C222.509 245.443 224.487 245.098 226.476 244.852ZM203.913 252.9C208.358 250.119 213.222 247.954 218.27 246.512C211.755 251.652 204.659 256.061 197.142 259.576C195.933 260.142 194.709 260.666 193.49 261.204C196.712 258.136 200.103 255.284 203.913 252.9ZM190.218 257.802C191.228 251.283 192.115 244.741 193.105 238.219C194.239 230.746 195.488 223.292 196.906 215.866C197.309 213.758 197.723 211.651 198.148 209.547C198.351 208.54 198.557 207.534 198.766 206.529C198.843 206.156 198.927 205.781 199.012 205.407C198.693 218.49 196.977 231.594 193.974 244.31C192.899 248.856 191.635 253.354 190.218 257.802ZM185.483 236.257C186.059 228.023 188.474 219.994 192.463 212.772C193.572 210.765 194.827 208.848 196.182 207.001C194.168 212.788 192.575 218.752 191.315 224.722C189.709 232.332 188.706 240.083 188.411 247.857C188.275 251.458 188.281 255.056 188.46 258.649C186.002 251.475 184.954 243.832 185.483 236.257ZM166.632 204.474C173.597 193.754 180.41 182.942 187.643 172.398C188.691 170.869 189.754 169.35 190.818 167.833C191.28 167.172 191.731 166.494 192.192 165.822C191.321 168.286 190.21 170.687 189.101 173.033C187.687 176.022 186.137 178.948 184.473 181.806C181.141 187.523 177.269 192.884 172.931 197.882C171.031 200.07 169.025 202.156 167.002 204.228C166.878 204.308 166.756 204.392 166.632 204.474ZM192.346 173.194C191.108 176.426 189.506 179.549 187.718 182.509C184.162 188.401 179.741 193.798 174.604 198.381C173.103 199.721 171.533 200.978 169.919 202.174C173.141 198.863 176.096 195.265 178.819 191.57C182.783 186.19 186.344 180.525 189.322 174.542C190.976 171.219 192.301 167.763 193.849 164.396C194.191 167.362 193.409 170.419 192.346 173.194ZM191.776 164.87C191.274 165.606 190.755 166.331 190.267 167.064C189.365 168.414 188.468 169.768 187.572 171.121C185.782 173.829 183.984 176.533 182.187 179.235C178.566 184.678 174.992 190.151 171.468 195.656C169.929 198.059 168.418 200.48 166.927 202.913C170.803 193.175 175.988 183.969 182.357 175.642C185.256 171.848 188.414 168.259 191.776 164.87ZM166.217 199.713C166.401 197.895 166.707 196.098 167.084 194.309C167.839 190.709 169.111 187.207 170.756 183.92C173.852 177.734 178.396 172.331 183.909 168.161C185.829 166.709 187.852 165.498 189.937 164.38C183.475 171.05 177.839 178.495 173.185 186.541C170.502 191.18 168.147 195.992 166.13 200.942C166.16 200.532 166.176 200.122 166.217 199.713ZM205.507 108.165C204.933 109.48 203.873 110.604 203.005 111.731C201.037 114.288 199.028 116.811 196.999 119.321C192.859 124.441 188.657 129.511 184.553 134.659C178.282 142.525 172.244 150.633 167.178 159.327C167.18 159.139 167.19 158.95 167.195 158.762C168.751 155.303 170.282 151.854 172.073 148.499C174.12 144.667 176.305 140.903 178.634 137.236C183.223 130.01 188.383 123.12 194.063 116.716C197.31 113.054 200.726 109.541 204.313 106.211C204.394 106.135 204.447 106.051 204.481 105.963C204.499 105.96 204.515 105.954 204.533 105.953C206.078 105.747 205.952 107.149 205.507 108.165ZM196.736 109.462C197.957 108.781 199.204 108.144 200.472 107.554C200.863 107.371 201.258 107.203 201.652 107.029C196.068 112.52 190.846 118.364 186.106 124.601C180.852 131.513 176.175 138.886 172.187 146.599C171.081 148.74 170.035 150.916 169.008 153.097C168.416 154.355 167.822 155.612 167.254 156.881C167.622 149.734 169.334 142.661 172.259 136.131C173.646 134.855 174.936 133.445 176.215 132.081C177.921 130.263 179.576 128.396 181.183 126.487C184.442 122.615 187.554 118.571 190.375 114.366C190.55 114.106 190.47 113.836 190.298 113.66C192.35 112.123 194.497 110.71 196.736 109.462ZM188.592 115.019C186.053 118.734 183.393 122.347 180.505 125.808C178.907 127.722 177.257 129.594 175.561 131.419C174.882 132.149 174.182 132.86 173.483 133.572C174.756 131.067 176.209 128.653 177.844 126.364C180.884 122.107 184.525 118.306 188.592 115.019ZM165.53 89.4625C162.664 97.8151 158.521 105.731 153.272 112.831C150.849 116.108 148.177 119.19 145.308 122.084C153.911 108.768 160.326 94.0452 164.435 78.7438C165.016 76.576 165.555 74.3964 166.049 72.2065C166.503 70.1839 167.082 68.1005 167.338 66.0276C170.307 73.3955 167.994 82.2856 165.53 89.4625ZM166.647 64.5217C166.629 64.5232 166.613 64.5306 166.595 64.5335C166.608 64.5217 166.622 64.5099 166.636 64.498C166.639 64.5054 166.642 64.5143 166.647 64.5217ZM165.053 65.878C165.412 65.5375 165.794 65.2221 166.17 64.9037C166.165 64.9156 166.158 64.9215 166.155 64.9333C165.618 66.9352 165.407 69.0319 164.99 71.0634C164.583 73.0416 164.131 75.0109 163.644 76.9714C162.661 80.9248 161.518 84.8368 160.225 88.6999C157.632 96.4499 154.424 103.976 150.686 111.243C149.006 114.511 147.208 117.723 145.317 120.877C145.39 120.267 145.467 119.657 145.525 119.047C146.569 117.071 147.463 115 148.323 112.958C149.564 110.017 150.694 107.028 151.684 103.994C153.67 97.9187 155.162 91.6894 156.177 85.3787C156.689 82.1878 157.049 78.9762 157.302 75.7557C159.454 72.1428 161.993 68.7787 165.053 65.878ZM152.065 86.7262C153.178 83.8359 154.444 80.9722 155.91 78.2181C154.846 89.5883 152.145 100.772 147.926 111.392C147.242 113.112 146.48 114.8 145.722 116.49C145.837 114.597 145.883 112.699 145.862 110.804C147.004 102.577 149.083 94.4761 152.065 86.7262ZM139.291 84.32C139.867 85.854 140.382 87.4102 140.86 88.9768C140.711 88.7414 140.561 88.506 140.419 88.2676C139.731 87.1126 139.064 85.9444 138.417 84.7657C137.172 82.4958 136.013 80.1785 134.93 77.8272C133.516 74.7577 132.249 71.6216 131.092 68.4455C134.428 73.3955 137.187 78.7245 139.291 84.32ZM128.682 65.0503C129.033 65.5138 129.367 65.9876 129.708 66.4585C131.005 70.4726 132.526 74.4098 134.277 78.2507C135.351 80.605 136.507 82.9223 137.727 85.204C138.337 86.3441 138.967 87.4754 139.615 88.5948C140.252 89.6935 140.852 90.8869 141.632 91.8893C141.654 91.9175 141.681 91.9338 141.706 91.953C142.855 96.3285 143.634 100.802 144.013 105.31C138.3 95.4637 133.724 85.0012 130.432 74.0973C129.779 71.9355 129.181 69.7574 128.6 67.5734C128.617 66.7324 128.637 65.8913 128.682 65.0503ZM139.01 98.1097C140.53 101.188 142.163 104.206 143.905 107.163C143.973 107.278 144.062 107.345 144.154 107.391C144.165 107.613 144.188 107.833 144.198 108.056C144.238 108.897 144.25 109.738 144.262 110.579C143.84 113.746 143.563 116.932 143.413 120.123C140.12 108.427 136.165 96.8748 131.834 85.5283C131.014 83.3798 130.164 81.2446 129.301 79.1139C129.209 78.4402 129.113 77.768 129.037 77.0928C128.802 74.9828 128.663 72.8639 128.609 70.7451C131.08 80.1978 134.695 89.3736 139.01 98.1097ZM134.936 101.339C132.689 95.0447 130.858 88.583 129.74 81.9909C133.476 91.605 136.891 101.338 139.818 111.232C140.467 113.422 141.088 115.619 141.706 117.818C140.976 116.208 140.244 114.599 139.554 112.977C137.92 109.136 136.341 105.272 134.936 101.339ZM108.122 35.6423C107.517 44.0526 106.264 52.4156 104.385 60.6349C103.452 64.7142 102.352 68.755 101.126 72.7558C101.058 72.6951 100.988 72.6359 100.919 72.5752C101.014 72.6255 101.145 72.6181 101.181 72.4982C103.366 64.9363 104.857 57.2056 105.986 49.4172C107.11 41.6598 107.729 33.827 107.888 25.9911C107.931 23.8456 107.943 21.7016 107.92 19.556C107.908 18.4618 107.887 17.3661 107.857 16.2719C107.854 16.189 107.854 16.1046 107.853 16.0216C108.427 18.3256 108.535 20.7524 108.547 23.1438C108.565 27.3134 108.421 31.4845 108.122 35.6423ZM106.64 13.9398C106.619 14.5883 106.679 15.2428 106.705 15.8928C106.747 16.8938 106.779 17.8962 106.805 18.8986C106.855 20.8546 106.874 22.8121 106.864 24.7696C106.842 28.646 106.699 32.521 106.445 36.3886C105.934 44.1666 104.998 51.921 103.551 59.5806C102.742 63.8702 101.816 68.1524 100.823 72.4034C100.812 72.4464 100.827 72.4804 100.846 72.5115C100.842 72.5086 100.839 72.5041 100.834 72.5012C100.587 71.2233 100.359 69.941 100.153 68.6543C100.593 67.0715 100.865 65.4309 101.178 63.8199C101.504 62.1363 101.806 60.4468 102.091 58.7559C102.672 55.3281 103.18 51.8899 103.597 48.4384C104.434 41.5384 104.971 34.6014 105.207 27.6554C105.271 25.7572 105.318 23.8589 105.342 21.9592C105.353 20.9864 105.359 20.0136 105.361 19.0408C105.361 18.1583 105.438 17.224 105.251 16.3578C105.684 15.5374 106.146 14.7305 106.64 13.9398ZM100.788 29.0902C101.547 25.5158 102.625 21.9903 104.123 18.6587C104.132 19.5709 104.135 20.483 104.133 21.3951C104.13 23.0638 104.111 24.7325 104.07 26.4013C103.984 29.8306 103.824 33.2569 103.591 36.6788C103.127 43.5211 102.364 50.3441 101.341 57.1256C101.051 59.0491 100.737 60.9695 100.401 62.887C100.21 63.9709 99.986 65.0562 99.7801 66.1431C99.6321 65.071 99.4959 63.9975 99.3804 62.9226C98.1899 51.7315 98.449 40.1229 100.788 29.0902ZM75.9366 37.2636C76.7287 37.3229 77.398 37.9196 77.9666 38.4171C79.1349 39.4373 80.2557 40.5182 81.3381 41.6287C85.6218 46.0175 89.3812 50.9112 92.4093 56.2491C94.1002 59.2297 95.6046 62.3184 96.8676 65.5049C97.2822 66.5517 97.6687 67.6104 98.0403 68.6736C95.5306 65.0222 93.0534 61.3471 90.5258 57.7076C87.48 53.3203 84.3691 48.9774 81.196 44.6819C79.3836 42.2284 77.6098 39.7097 75.6197 37.3969C75.5679 37.3377 75.5086 37.314 75.4494 37.3066C75.5975 37.2696 75.7589 37.2503 75.9366 37.2636ZM75.2377 37.4014C75.1681 37.4828 75.134 37.5968 75.2125 37.7153C76.7154 39.9467 78.3989 42.0655 79.9951 44.2303C81.5943 46.398 83.1771 48.5776 84.7437 50.7676C87.8532 55.1149 90.893 59.5051 93.8322 63.9694C94.999 65.7403 96.1658 67.5171 97.3089 69.3073C90.3955 62.7538 84.3765 55.3074 79.6235 47.0155C77.9888 44.1622 76.4815 41.2304 75.1163 38.2394C75.0319 38.0543 74.832 38.0751 74.7209 38.1832C74.7565 37.81 74.9416 37.545 75.2377 37.4014ZM78.1931 46.9563C77.5164 45.5925 76.8812 44.2096 76.289 42.8074C75.9928 42.107 75.7085 41.4007 75.4346 40.69C75.177 40.0222 74.8335 39.2996 74.7269 38.58C79.3481 49.395 86.0512 59.3822 94.2275 67.8296C95.7304 69.3828 97.3014 70.868 98.905 72.3161C90.2474 65.5034 83.0972 56.8325 78.1931 46.9563ZM44.5103 29.6011C46.2235 31.6385 48.0181 33.6049 49.6646 35.7015C51.5984 38.1624 53.4389 40.7063 55.1269 43.3419C58.5148 48.6309 61.5872 54.2294 63.9252 60.0678C64.4952 61.4922 65.0105 62.9329 65.5288 64.3751C64.7973 63.1906 64.0614 62.006 63.3255 60.8229C61.7041 58.2125 60.0813 55.605 58.4673 52.9901C55.2631 47.7988 52.0663 42.6045 48.8784 37.4028C47.5206 35.1892 46.1598 32.9741 44.7606 30.7871C44.6777 30.3918 44.5844 29.9994 44.5103 29.6011ZM57.348 39.0893C61.0379 44.9203 62.64 51.7892 64.3487 58.3902C64.4035 58.6019 64.4642 58.8107 64.5204 59.0224C63.4751 56.6755 62.3897 54.3479 61.1933 52.0735C58.2601 46.5032 54.8056 41.2038 50.938 36.236C49.1183 33.898 47.2171 31.5245 45.1041 29.416C50.2865 30.7649 54.5124 34.6102 57.348 39.0893ZM62.7258 62.4162C56.8741 56.2594 51.748 49.3224 48.255 41.5488C46.9535 38.6525 45.9141 35.6527 45.1515 32.5787C47.5058 36.5855 49.9934 40.5212 52.4069 44.4879C55.58 49.7044 58.725 54.9387 61.8685 60.1729C62.5763 61.3515 63.2841 62.5302 63.9918 63.7088C63.5684 63.2794 63.1404 62.8544 62.7258 62.4162ZM30.6259 77.8183C37.8694 78.0256 45.0315 79.0517 52.1922 80.0956C51.8338 80.2363 51.4726 80.3651 51.1128 80.4999C49.9371 80.3148 48.7274 80.2348 47.5606 80.1119C45.957 79.9446 44.3519 79.7876 42.7468 79.6351C39.5855 79.336 36.4021 79.2102 33.229 79.1199C26.8605 78.9407 20.5231 79.2265 14.1813 79.835C12.5422 79.992 10.9031 80.1771 9.2684 80.3873C16.1181 78.2299 23.4386 77.6125 30.6259 77.8183ZM3.07911 82.8468C3.24791 82.7638 3.41967 82.6883 3.58995 82.6084C3.62549 82.6069 3.65656 82.6172 3.69506 82.6113C16.1803 80.3873 28.8802 79.4678 41.549 80.3222C43.2977 80.4406 45.0434 80.5546 46.7847 80.7501C47.1771 80.7945 47.5695 80.8478 47.9633 80.9041C36.2466 82.2767 24.4632 82.9948 12.6621 82.9963C10.7876 82.9963 8.9145 82.98 7.03995 82.9474C5.75323 82.9238 4.39545 82.7934 3.07911 82.8468ZM12.5333 84.8131C10.5906 84.5495 8.6613 84.1986 6.74528 83.787C8.35479 83.821 9.96284 83.8418 11.5724 83.8507C14.8432 83.8684 18.1155 83.8373 21.3849 83.7544C28.0376 83.5871 34.6845 83.2406 41.315 82.6706C42.852 82.5388 44.3875 82.3937 45.9229 82.2456C35.142 85.4528 23.6859 86.3293 12.5333 84.8131ZM90.1793 112.564C91.1699 114.692 91.9769 116.892 92.6817 119.127C87.178 111.132 81.1989 103.458 74.7505 96.207C73.2062 94.4702 71.6203 92.7733 70.0138 91.0942C78.7958 95.8872 85.946 103.464 90.1793 112.564ZM90.5969 117.562C83.9856 111.645 78.0895 104.989 73.2683 97.4982C72.0216 95.5615 70.8696 93.5699 69.728 91.571C76.5437 99.0085 82.9817 106.77 88.82 115.004C89.4197 115.851 90.0076 116.707 90.5969 117.562ZM86.5502 116.651C84.3824 114.936 82.3479 113.054 80.4719 111.026C76.7154 106.966 73.5601 102.35 71.1776 97.3575C70.0819 95.061 69.1476 92.6874 68.4058 90.2532C68.4146 90.2576 68.422 90.2621 68.4309 90.2665C70.6964 94.9855 73.6148 99.4453 76.7154 103.645C80.0011 108.097 83.5296 112.398 87.4652 116.299C88.9045 117.724 90.4133 119.081 91.9488 120.406C91.2691 119.966 90.5717 119.55 89.8995 119.097C88.7505 118.324 87.634 117.508 86.5502 116.651ZM75.5205 122.356C73.6489 123.385 71.7936 124.441 69.879 125.394C67.5321 126.563 65.1394 127.639 62.7081 128.619C58.4659 130.328 54.1082 131.67 49.7046 132.878C55.8806 128.073 63.2352 124.894 70.8622 123.2C72.4081 122.857 73.9628 122.58 75.5205 122.356ZM47.3459 134.834C47.7634 134.461 48.2047 134.12 48.6356 133.765C53.5085 132.764 58.2763 131.214 62.8887 129.364C65.3614 128.372 67.7957 127.282 70.1811 126.095C72.5088 124.937 74.8527 123.735 77.0204 122.295C77.0782 122.257 77.1078 122.207 77.1271 122.152C78.8299 121.95 80.5356 121.816 82.2458 121.743C81.7024 122.039 81.1679 122.358 80.6555 122.615C79.3851 123.252 78.1087 123.875 76.825 124.487C74.2589 125.708 71.6692 126.878 69.0558 127.995C63.8245 130.23 58.5488 132.308 53.1502 134.108C50.6167 134.954 48.0596 135.731 45.5246 136.569C46.105 135.962 46.727 135.388 47.3459 134.834ZM44.7932 137.391C50.0911 136.165 55.2883 134.296 60.3774 132.413C65.7168 130.436 70.9777 128.331 76.1439 125.932C77.5935 125.258 79.0357 124.57 80.469 123.863C81.1856 123.511 81.9008 123.154 82.6145 122.793C83.263 122.464 83.9663 122.172 84.5127 121.684C86.6686 121.662 88.8275 121.724 90.9819 121.882C91.1818 121.996 91.3832 122.107 91.5875 122.211C85.6129 124.701 79.6694 127.245 73.5897 129.477C67.4966 131.714 61.2881 133.673 55.0573 135.482C51.5125 136.511 47.9441 137.452 44.4171 138.543C44.3371 138.568 44.3149 138.636 44.3164 138.706C44.232 138.322 44.5044 137.795 44.7932 137.391ZM52.4454 137.936C51.1483 138.18 49.8497 138.416 48.5527 138.651C47.8819 138.772 47.2096 138.892 46.5374 139.012C46.0325 139.101 45.4965 139.234 44.9812 139.178C44.611 139.138 44.4259 138.996 44.3445 138.808C44.38 138.869 44.4363 138.918 44.5178 138.901C50.8596 137.656 57.0903 135.715 63.2485 133.766C69.4822 131.794 75.6833 129.669 81.8001 127.361C83.8686 126.58 85.9372 125.781 87.9938 124.959C81.9571 129.108 75.1503 132.086 68.1392 134.224C62.9938 135.79 57.7285 136.938 52.4454 137.936ZM127.702 165.591C130.727 168.616 133.586 171.804 136.287 175.121C134.587 173.438 132.82 171.832 131.057 170.279C125.913 165.746 120.576 161.43 115.341 157.006C112.246 154.391 109.132 151.798 106.026 149.195C105.941 149.124 105.858 149.142 105.789 149.183C105.698 148.696 105.611 148.209 105.528 147.72C113.46 152.969 120.973 158.861 127.702 165.591ZM106.43 152.276C106.218 151.424 106.051 150.562 105.886 149.7C111.174 154.301 116.491 158.87 121.764 163.487C126.644 167.76 131.691 171.894 136.196 176.572C137.301 177.718 138.34 178.907 139.344 180.124C132.15 174.638 123.507 171.286 115.834 166.488C114.52 165.666 113.232 164.803 111.987 163.879C111.609 163.599 111.236 163.297 110.862 162.992C109.926 161.433 109.098 159.809 108.39 158.133C107.589 156.239 106.926 154.274 106.43 152.276ZM122.017 174.855C118.17 172.238 114.854 168.891 112.214 165.074C112.924 165.589 113.644 166.093 114.377 166.575C116.61 168.044 118.93 169.375 121.272 170.658C126.046 173.271 130.909 175.765 135.414 178.833C137.535 180.276 139.562 181.856 141.42 183.623C135.009 180.568 127.952 178.893 122.017 174.855ZM136.22 222.244C139.476 224.835 142.63 227.559 145.769 230.29C146.203 230.667 146.631 231.052 147.059 231.436C146.706 231.233 146.361 231.018 146.006 230.82C139.011 224.869 131.541 219.401 123.781 214.514C122.226 213.536 120.652 212.588 119.065 211.661C121.537 212.709 123.951 213.895 126.258 215.265C129.745 217.337 133.048 219.72 136.22 222.244ZM133.869 227.789C128.818 225.2 124.268 221.57 120.637 217.206C119.648 216.019 118.718 214.775 117.858 213.491C117.429 212.85 117.014 212.197 116.611 211.538C116.368 211.14 116.146 210.721 115.849 210.38C115.955 210.42 116.06 210.465 116.168 210.505C116.168 210.583 116.192 210.659 116.272 210.707C124.927 215.897 133.25 221.468 141.06 227.867C141.183 227.968 141.303 228.073 141.426 228.175C139.557 227.032 137.708 225.856 135.875 224.657C131.785 221.981 127.768 219.192 123.83 216.296C121.574 214.637 119.337 212.954 117.116 211.251C116.893 211.079 116.635 211.421 116.853 211.597C124.537 217.865 132.708 223.48 141.08 228.784C142.523 229.699 143.963 230.658 145.425 231.567C145.477 231.612 145.528 231.658 145.579 231.701C144.318 231.496 143.065 231.245 141.82 230.9C139.075 230.137 136.408 229.089 133.869 227.789ZM108.571 257.064C113.249 263.972 118.675 270.331 124.642 276.157C130.684 282.056 137.381 287.335 144.528 291.832C146.33 292.966 148.168 294.042 150.026 295.08C144.235 293.13 138.709 290.4 133.638 286.982C126.641 282.268 120.387 276.295 115.504 269.408C112.806 265.604 110.674 261.538 108.63 257.367C108.608 257.266 108.59 257.166 108.571 257.064ZM110.237 258.412C111.266 259.443 112.385 260.397 113.45 261.378C114.945 262.755 116.448 264.125 117.953 265.49C120.964 268.222 123.988 270.938 127.028 273.638C133.075 279.013 139.064 284.444 145.193 289.726C146.665 290.995 148.151 292.249 149.628 293.512C144.903 290.872 140.356 287.911 136.019 284.68C129.302 279.677 123.091 273.958 117.572 267.659C114.979 264.699 112.539 261.605 110.237 258.412ZM123.239 267.205C128.033 271.237 132.569 275.56 137.068 279.914C140.621 283.35 144.156 286.806 147.737 290.215C138.204 282.348 128.765 274.364 119.541 266.14C117.888 264.665 116.241 263.183 114.59 261.703C112.886 260.174 111.242 258.491 109.388 257.145C109.366 257.129 109.341 257.127 109.317 257.127C109.2 256.961 109.082 256.797 108.963 256.633C113.83 260.029 118.687 263.376 123.239 267.205ZM108.666 256.422C108.587 256.43 108.522 256.471 108.47 256.535C108.453 256.439 108.433 256.344 108.416 256.248C108.498 256.307 108.581 256.365 108.666 256.422ZM144.704 295.242C140.135 293.739 135.677 291.804 131.545 289.331C123.744 284.661 117.061 278.128 112.843 270.021C111.147 266.762 109.981 263.34 109.146 259.807C110.512 262.809 112.23 265.681 114.05 268.4C116.451 271.987 119.179 275.417 122.183 278.519C128.174 284.704 135.259 289.833 143.03 293.548C146.534 295.224 150.189 296.568 153.923 297.634C153.156 297.482 152.388 297.335 151.624 297.161C149.29 296.629 146.98 295.991 144.704 295.242ZM164.436 340.989C164.865 342.334 165.25 343.691 165.624 345.051C165.609 345.023 165.592 344.994 165.579 344.966C164.879 343.577 164.184 342.186 163.496 340.791C162.1 337.96 160.721 335.12 159.363 332.269C156.651 326.569 154.093 320.798 151.618 314.991C150.937 313.392 150.263 311.79 149.598 310.185C149.398 309.702 149.203 309.215 149.006 308.726C155.586 318.715 160.797 329.585 164.436 340.989ZM156.674 334.194C153.418 328.015 151.148 321.37 149.318 314.645C148.536 311.775 147.848 308.882 147.176 305.984C147.182 305.994 147.189 306.003 147.195 306.014C147.561 307.234 148.052 308.418 148.529 309.598C149.129 311.084 149.734 312.564 150.347 314.044C151.572 317.002 152.83 319.946 154.114 322.879C156.661 328.702 159.249 334.51 161.984 340.247C162.751 341.857 163.527 343.463 164.309 345.066C164.358 345.163 164.402 345.267 164.449 345.366C161.417 341.983 158.812 338.251 156.674 334.194ZM135.025 327.404C143.705 331.612 151.705 337.04 158.762 343.548C158.555 343.4 158.349 343.244 158.143 343.099C156.038 341.618 153.858 340.246 151.63 338.959C147.192 336.396 142.572 334.166 137.889 332.087C128.405 327.879 118.647 324.278 109.375 319.601C106.757 318.28 104.187 316.869 101.696 315.32C100.473 314.56 99.2663 313.77 98.0833 312.948C96.9076 312.13 95.7823 311.236 94.5889 310.445C94.5903 310.42 94.5859 310.397 94.5874 310.371C107.73 316.844 121.847 321.015 135.025 327.404ZM94.7725 311.833C94.6955 311.578 94.6347 311.323 94.6051 311.064C96.3879 312.659 98.4801 313.992 100.48 315.277C102.588 316.63 104.754 317.893 106.948 319.1C111.486 321.595 116.183 323.785 120.918 325.876C130.386 330.053 140.074 333.824 149.106 338.915C151.008 339.987 152.86 341.142 154.68 342.345C152.934 341.49 151.179 340.652 149.411 339.843C144.499 337.595 139.477 335.592 134.366 333.842C124.477 330.454 113.913 328.08 105.106 322.202C100.954 319.432 97.5621 315.93 94.7725 311.833ZM107.465 326.299C104.658 324.177 102.046 321.796 99.7328 319.14C99.4307 318.794 99.1464 318.431 98.8547 318.075C100.107 319.29 101.456 320.409 102.839 321.443C106.776 324.388 111.196 326.629 115.732 328.494C120.824 330.586 126.119 332.142 131.331 333.895C136.541 335.647 141.67 337.635 146.691 339.873C149.502 341.125 152.266 342.47 154.994 343.891C155.647 344.232 156.288 344.59 156.936 344.938C153.075 343.598 149.038 342.698 145.08 341.755C131.883 338.605 118.437 334.594 107.465 326.299ZM193.447 350.793C193.33 350.892 193.212 350.99 193.093 351.087C193.175 350.953 193.265 350.824 193.347 350.691C193.373 350.732 193.406 350.768 193.447 350.793ZM229.647 328.097C219.185 332.838 209.208 338.701 200.007 345.572C198.106 346.992 196.253 348.473 194.422 349.98C201.458 341.55 210.505 334.865 220.745 330.852C223.642 329.718 226.618 328.797 229.647 328.097ZM219.82 330.05C212.406 333.137 205.562 337.594 199.776 343.173C197.793 345.085 195.951 347.124 194.248 349.284C200.31 340.249 209.489 333.435 219.82 330.05ZM203.677 326.923C201.314 331.989 198.751 336.96 196.203 341.937C197.783 335.955 199.404 329.989 201.422 324.131C203.725 317.451 206.414 310.903 209.406 304.503C210.828 301.465 212.339 298.47 213.903 295.501C212.261 306.439 208.343 316.919 203.677 326.923ZM214.235 293.038C214.066 293.059 213.904 293.144 213.805 293.329C207.078 305.954 201.749 319.321 197.766 333.059C197.376 334.407 197.001 335.759 196.64 337.116C198.205 325.279 201.921 313.685 207.53 303.166C209.311 299.826 211.294 296.576 213.391 293.422C213.687 293.195 213.971 292.955 214.275 292.736C214.263 292.837 214.247 292.938 214.235 293.038ZM206.659 300.039C208.22 298.052 209.981 296.243 211.897 294.612C204.139 305.759 198.963 318.795 196.475 332.104C195.751 335.977 195.267 339.893 194.998 343.823C195.075 328.514 196.918 312.434 206.659 300.039ZM218.241 340.469C215.102 342.338 211.789 343.936 208.374 345.234C205.182 346.448 201.905 347.433 198.741 348.726C197.55 349.211 196.301 349.774 195.085 350.418C204.024 343.443 213.599 337.333 223.739 332.241C226.899 330.655 230.099 329.157 233.35 327.767C233.396 327.747 233.425 327.716 233.462 327.69C233.473 327.69 233.487 327.688 233.499 327.688C229.13 332.721 223.97 337.059 218.241 340.469Z" fill="#5F5C7C"/>
</svg>
