<svg width="237" height="269" viewBox="0 0 237 269" fill="none" xmlns="http://www.w3.org/2000/svg">
<path d="M143.18 25.73C143.714 19.583 143.276 11.965 137.735 9.24903C133.123 6.98903 127.639 9.62803 123.551 12.736C106.909 25.391 98.1831 45.847 92.6551 66.01C87.9561 83.15 85.0651 100.783 84.0061 118.523C83.4731 127.439 78.5251 157.636 90.3761 160.3C103.598 163.273 110.973 139.11 115.017 130.459C122.229 115.029 128.177 99.008 132.785 82.611C138.008 64.029 141.51 44.961 143.18 25.73Z" fill="#FFE7C5"/>
<path d="M161.175 134.258C176.132 129.875 191.29 125.621 204.966 118.146C218.643 110.671 230.925 99.5423 236.636 85.0403C203.583 84.9753 170.587 95.3593 143.528 114.341C137.647 118.467 132.029 123.086 127.259 128.477C124.509 131.585 115.462 141.561 117.529 146.131C120.099 151.813 154.933 136.087 161.175 134.258Z" fill="#FFE7C5"/>
<path d="M69.0027 155.525C65.2047 141.102 58.3008 127.679 50.5338 114.947C51.6558 116.786 46.8767 129.458 46.3787 132.127C45.2617 138.114 44.4717 144.162 44.0027 150.234C43.0487 162.578 43.4287 175.023 45.1247 187.287C46.2397 195.35 46.6897 211.67 55.2387 215.934C64.5397 220.573 68.0267 202.13 69.7257 195.793C73.2507 182.644 72.4457 168.601 69.0027 155.525Z" fill="#FFE7C5"/>
<path d="M115.261 192.44C126.48 184.701 137.009 175.582 149.699 170.609C162.77 165.488 177.27 165.124 190.531 160.516C194.926 158.988 199.912 155.769 199.357 151.149C198.759 146.171 192.442 144.464 187.431 144.297C165.325 143.558 143.481 149.905 124.329 160.746C115.293 165.861 78.1007 187.072 86.8537 201.168C92.2007 209.782 109.814 196.197 115.261 192.44Z" fill="#CEBBB6"/>
<path d="M170.424 83.2292C186.834 66.4162 200.775 46.6662 207.83 24.2562C209.076 20.2992 210.112 16.1792 209.767 12.0452C209.422 7.91116 207.485 3.72015 203.934 1.57615C198.902 -1.46285 192.353 0.356165 187.168 3.12517C174.446 9.92017 165.099 21.5992 156.999 33.5322C144.639 51.7422 134.305 71.3252 126.217 91.7932C124.125 97.0872 122.184 102.44 120.396 107.844C119.408 110.832 114.642 120.571 116.083 123.481C119.157 129.688 137.22 112.381 140.875 109.474C151.192 101.272 161.213 92.6672 170.424 83.2292Z" fill="#CEBBB6"/>
<path d="M223.337 91.2023C223.202 91.3433 223.065 91.4813 222.929 91.6223C222.701 91.4803 222.39 91.4673 222.174 91.7363C221.457 92.6273 220.718 93.4993 219.973 94.3673C219.706 94.5373 219.441 94.7103 219.173 94.8773C216.281 96.0143 213.351 97.0483 210.366 97.9243C206.381 99.0943 202.337 100.026 198.281 100.908C190.25 102.655 182.145 104.084 174.198 106.205C166.806 108.178 159.648 110.832 152.898 114.45C146.493 117.884 140.485 122.058 135.038 126.869C129.571 131.696 124.656 137.155 120.464 143.124C119.949 143.858 119.445 144.6 118.951 145.348C118.862 145.483 118.852 145.622 118.888 145.745C114.968 149.351 111.255 153.186 107.707 157.146C101.363 164.228 95.4364 171.728 89.7915 179.389C90.5844 178.019 91.3104 176.616 91.9784 175.188C92.6004 174.294 93.0794 173.296 93.4394 172.243C95.9844 167.516 98.6485 162.855 101.49 158.301C106.535 150.217 112.152 142.532 118.352 135.296C124.479 128.145 131.039 121.383 137.528 114.564C144.009 107.753 150.437 100.872 156.282 93.5003C161.913 86.3973 166.908 78.8163 171.168 70.8133C179.577 55.0153 185.142 37.6633 187.419 19.9073C187.557 19.8983 187.692 19.8163 187.731 19.6333C188.253 17.2043 188.509 14.7163 188.851 12.2543C188.915 11.7963 188.227 11.5683 188.028 11.9583C187.762 11.6793 187.247 11.6433 187.093 12.1013C181.298 29.4063 170.126 44.0663 158.802 58.1113C147.49 72.1413 135.732 86.0863 128.011 102.52C123.782 111.522 120.932 121.184 120.41 131.149L120.415 131.181C114.317 138.053 108.644 145.258 103.57 152.924C100.641 157.349 97.8924 161.889 95.2754 166.506C95.3724 166.184 95.4544 165.857 95.5474 165.534C99.7854 158.017 103.884 150.406 107.111 142.393C108.876 138.011 110.373 133.519 111.466 128.921C112.635 124.001 113.227 118.996 113.502 113.951C113.786 108.733 113.796 103.503 114.102 98.2863C114.388 93.4023 115 88.5663 116.133 83.8033C118.265 74.8423 121.82 66.3093 124.938 57.6663C127.409 50.8173 129.659 43.7873 130.656 36.5593C130.678 36.4773 130.694 36.3953 130.715 36.3123C130.729 36.2933 130.744 36.2763 130.753 36.2513C131.564 34.0363 131.964 31.6233 131.868 29.2443C131.969 28.8303 132.075 28.4183 132.156 27.9953C132.203 27.7493 131.921 27.6023 131.724 27.6673C131.702 27.5053 131.687 27.3423 131.659 27.1813C131.551 26.5483 130.746 26.6393 130.603 27.1943C130.552 27.3913 130.494 27.5873 130.441 27.7843C130.238 27.8413 130.073 27.9903 130.074 28.2353C130.075 28.5423 130.065 28.8473 130.06 29.1523C129.56 30.8553 128.987 32.5453 128.356 34.1943C127.93 35.3083 127.461 36.4063 126.93 37.4743C126.379 38.5813 125.721 39.6273 125.166 40.7303C125.106 40.8493 125.117 40.9543 125.163 41.0403C124.97 41.3163 124.785 41.5963 124.585 41.8693C121.433 46.1713 117.728 50.0203 113.944 53.7643C110.076 57.5913 106.122 61.3483 102.581 65.4883C99.1314 69.5213 96.1934 73.9333 94.0104 78.7793C89.6654 88.4273 88.1974 99.1483 88.2004 109.656C88.2044 121.461 90.0924 133.147 91.6314 144.82C92.4305 150.883 93.1424 156.969 93.4425 163.08C93.5225 164.708 93.5364 166.466 93.3554 168.2C92.1844 170.296 91.0915 172.433 90.0675 174.605C90.9685 169.905 90.9844 165.052 90.3404 160.302C89.4824 153.973 87.4525 147.863 84.9275 142.017C82.3305 136.002 79.2544 130.191 76.1014 124.453C74.4944 121.528 72.8394 118.629 71.1524 115.749C69.5214 112.965 67.8054 110.231 66.2084 107.427C64.6764 104.737 63.2854 101.95 62.3584 98.9883C61.6544 96.7403 61.2534 94.3903 61.1064 92.0313C61.1604 90.9893 61.2444 89.9453 61.3644 88.9003C61.4254 88.3723 61.5014 87.8463 61.5864 87.3223C61.6724 86.9713 61.7624 86.6203 61.8454 86.2683C61.8674 86.1763 61.8394 86.0993 61.7874 86.0403C61.7204 85.7783 61.2604 85.6923 61.1724 86.0003C61.1044 86.2403 61.0434 86.4813 60.9824 86.7223L60.8805 86.7993C60.7545 87.3213 60.6585 87.8473 60.5765 88.3733C59.7555 91.1943 59.0064 94.0383 58.3334 96.8973C57.4744 100.544 56.7654 104.228 56.3534 107.954C55.5984 114.781 55.8795 121.815 57.9925 128.391C60.0945 134.931 64.2395 140.34 68.6865 145.464C73.1815 150.644 77.8274 155.745 81.3504 161.666C84.8794 167.597 87.3074 174.469 86.8514 181.453C86.8344 181.718 86.8155 181.982 86.7965 182.246C86.6445 182.629 86.4904 183.011 86.3455 183.397C86.2635 183.614 86.1834 183.831 86.1014 184.048C85.8794 184.506 85.6524 184.962 85.4324 185.421L85.3655 185.515L85.3224 185.652C84.1664 188.065 83.0404 190.493 81.9284 192.925C80.6234 195.177 79.4994 197.531 78.5944 199.968C78.3624 200.593 78.1494 201.224 77.9454 201.859C77.6244 202.596 77.3004 203.332 76.9824 204.069C71.3314 217.172 66.0764 230.469 61.3324 243.938C61.2954 244.005 61.2564 244.072 61.2194 244.14C61.4674 237.529 60.8714 230.928 59.6194 224.438C59.7094 223.006 59.8714 221.571 60.0164 220.147C60.1904 218.433 60.4094 216.723 60.6514 215.017C60.7284 214.471 60.8134 213.927 60.8964 213.382C61.0234 212.995 61.1625 212.613 61.2965 212.228C61.3355 212.138 61.3804 212.051 61.4184 211.961C61.7484 211.196 62.0594 210.423 62.3504 209.643C62.5044 209.228 62.6565 208.812 62.7965 208.393C62.8985 208.087 63.0154 207.787 63.0485 207.472C63.4054 206.531 63.7615 205.59 64.1045 204.644C66.4075 198.285 67.8044 191.615 68.2534 184.867C68.7014 178.128 68.2314 171.327 66.8424 164.717C66.1464 161.403 65.2164 158.139 64.0534 154.958C62.8974 151.796 61.4765 148.757 59.9625 145.753C57.7335 141.331 55.2834 136.82 53.9684 132.01C53.9684 132.008 53.9684 132.006 53.9684 132.006C53.8954 131.174 53.8234 130.342 53.7504 129.511C53.6054 127.847 53.4604 126.184 53.3144 124.52C53.2824 124.153 52.8395 124.077 52.6064 124.269C52.5905 124.271 52.5745 124.27 52.5595 124.274C52.3135 124.234 52.0254 124.364 51.9884 124.66C51.9704 124.805 51.9634 124.95 51.9504 125.096C51.8524 125.386 51.7984 125.7 51.7204 126.001C51.5634 126.604 51.4104 127.203 51.2804 127.812C51.1504 128.418 51.0084 129.021 50.8784 129.627C50.7424 130.256 50.6764 130.89 50.5404 131.519V131.556C50.4364 131.85 50.3474 132.149 50.2534 132.447C50.2454 132.445 50.2434 132.438 50.2344 132.438C50.1084 132.438 50.0814 132.617 50.1914 132.64C49.0524 136.341 48.6844 140.307 48.8034 144.134C49.0034 150.566 50.6574 156.817 52.5584 162.929C54.5774 169.42 56.8204 175.831 58.1865 182.504C59.5345 189.092 60.2044 195.823 60.1894 202.548C60.1814 206.244 59.9615 209.927 59.5595 213.591C59.4425 213.827 59.3274 214.065 59.2074 214.3C59.0954 213.624 58.9334 212.957 58.6884 212.31C58.2005 211.022 57.4534 209.852 56.7234 208.692C56.5214 208.37 56.3094 208.05 56.0954 207.729C56.0014 207.485 55.9184 207.238 55.8204 206.995C55.7624 206.85 55.6344 206.815 55.5224 206.85C55.1704 206.294 54.8454 205.725 54.5884 205.128C53.7454 196.688 52.1694 188.329 49.8604 180.166C47.5044 171.836 44.4284 163.714 40.6394 155.929C36.9164 148.279 32.4644 141.057 27.6074 134.081C22.8894 127.304 17.9065 120.713 13.3245 113.842C10.1605 109.098 7.20544 104.198 4.68744 99.0823C4.72344 99.0203 4.74445 98.9483 4.73745 98.8653C4.70145 98.4313 4.47945 98.1163 4.27645 97.7393C4.07345 97.3623 3.87945 96.9803 3.69645 96.5933C3.32945 95.8193 3.00344 95.0263 2.71944 94.2183C2.33844 93.1363 2.04545 92.0263 1.82145 90.9023C1.82845 90.7853 1.83344 90.6683 1.84244 90.5513C1.85244 90.4143 1.78845 90.3153 1.69945 90.2593C1.63845 89.9053 1.57945 89.5513 1.53345 89.1953C1.48145 88.7963 1.05945 88.7503 0.821446 88.9483C0.778446 88.9283 0.731449 88.9103 0.677449 88.8973C0.548449 88.8653 0.379438 88.9483 0.307438 89.0533L0.24944 89.1683C0.0924395 89.2093 -0.047554 89.3693 0.015446 89.5723C0.098446 89.8373 0.195444 90.0973 0.282444 90.3603C0.379444 92.0123 0.560445 93.6633 0.795445 95.3083C0.341445 102.889 0.86944 110.565 2.16544 118.02C3.73844 127.066 6.49345 135.923 10.3825 144.242C14.4085 152.856 19.7384 160.72 25.5284 168.235C31.3954 175.85 37.6425 183.184 43.1175 191.095C48.3554 198.662 52.9624 206.846 55.5124 215.736C55.7814 216.674 56.0284 217.62 56.2734 218.566C56.1154 218.532 55.9144 218.644 55.9634 218.833C56.2124 219.788 56.3634 220.763 56.6104 221.72C56.8514 222.654 57.0774 223.591 57.2894 224.532C57.7184 226.441 58.1004 228.361 58.4184 230.292C59.0544 234.155 59.4594 238.056 59.6054 241.968C59.6874 244.166 59.5854 246.362 59.6424 248.558C59.6434 248.614 59.6584 248.661 59.6774 248.705C58.3044 252.719 56.9684 256.744 55.6954 260.789C54.9334 263.21 54.1984 265.638 53.4804 268.073C53.3754 268.429 53.9035 268.658 54.0224 268.297C56.1814 261.717 58.4054 255.162 60.7064 248.636C60.8364 248.57 60.9384 248.451 60.9554 248.257C60.9684 248.114 60.9764 247.971 60.9884 247.828C61.5074 246.36 62.0315 244.894 62.5595 243.429L62.6585 243.298C62.7365 243.35 62.8424 243.363 62.9424 243.298C69.3274 239.164 76.3404 236.242 83.4484 233.608C90.5484 230.977 97.7614 228.514 104.478 224.981C107.758 223.256 110.88 221.252 113.794 218.961C116.72 216.66 119.437 214.109 122.039 211.451C127.265 206.111 131.976 200.299 137.123 194.887C139.154 192.751 141.254 190.661 143.47 188.709C143.56 188.735 143.664 188.722 143.745 188.639C144.668 187.7 145.695 186.854 146.783 186.09C146.864 186.168 146.988 186.201 147.108 186.114C148.2 185.319 149.381 184.663 150.617 184.121C150.843 184.074 151.068 184.026 151.295 183.982L151.289 183.892L151.29 183.835C151.381 183.798 151.474 183.763 151.566 183.727C151.624 183.717 151.679 183.698 151.733 183.672C151.992 183.621 152.254 183.559 152.508 183.494C152.643 183.46 152.741 183.381 152.814 183.276C152.912 183.244 153.008 183.207 153.107 183.177C153.479 183.063 153.856 182.963 154.235 182.875C154.582 182.794 154.99 182.788 155.204 182.469C155.239 182.416 155.258 182.353 155.269 182.287C155.664 181.972 155.483 181.227 154.865 181.303C153.401 181.483 151.946 181.736 150.503 182.043C150.373 182.057 150.24 182.063 150.115 182.094C150.068 182.106 150.029 182.134 149.986 182.156C149.825 182.192 149.662 182.225 149.501 182.262C149.023 182.373 148.55 182.505 148.075 182.629C143.342 183.347 138.725 184.903 134.407 186.926C127.725 190.058 121.666 194.313 115.802 198.755C109.762 203.331 103.861 208.079 97.5485 212.282C91.1715 216.528 84.5535 220.426 78.4204 225.032C72.9774 229.119 67.8745 233.807 64.0174 239.454C67.5224 229.899 71.2215 220.415 75.2094 211.038C76.1795 208.758 77.1625 206.481 78.1535 204.206C78.2694 204.243 78.3974 204.223 78.4714 204.101C78.5434 203.983 78.6204 203.87 78.6934 203.752C83.7794 203.494 88.9094 202.808 93.9004 201.838C99.0374 200.84 104.12 199.37 108.801 196.995C113.335 194.695 117.228 191.526 120.717 187.852C124.189 184.196 127.262 180.191 130.598 176.415C134.003 172.561 137.732 168.99 142.197 166.382C146.71 163.747 151.692 162.032 156.768 160.855C166.87 158.514 177.279 158.235 187.479 156.512C196.94 154.913 206.691 152.095 214.1 145.713C215.004 144.934 215.796 144.107 216.53 143.167C216.848 142.759 216.31 142.186 215.896 142.478C215.815 142.406 215.712 142.357 215.584 142.375C215.188 142.433 214.913 142.726 214.596 142.948C214.267 143.179 213.925 143.388 213.568 143.573C213.004 143.866 212.413 144.105 211.804 144.285C206.146 143.567 200.479 142.917 194.811 142.291C188.765 141.623 182.72 140.857 176.656 140.372C165.866 139.508 154.253 139.993 144.939 146.163C140.82 148.891 137.471 152.541 134.094 156.104C130.584 159.808 126.934 163.344 122.403 165.78C117.778 168.265 112.731 169.798 107.836 171.642C103.301 173.35 98.9744 175.444 95.0525 178.313C92.0675 180.497 89.3394 183.043 86.9314 185.865C87.0925 185.417 87.2544 184.969 87.4114 184.518C87.4714 184.474 87.5225 184.411 87.5525 184.314C87.6465 184.005 87.7205 183.693 87.7855 183.38C87.8275 183.253 87.8675 183.125 87.9085 182.998C93.6965 175.455 99.4695 167.897 105.72 160.728C109.912 155.921 114.323 151.285 119.024 146.971C122.48 145.462 125.946 143.976 129.464 142.617C133.172 141.185 136.921 139.864 140.692 138.608C148.278 136.082 155.941 133.796 163.521 131.252C171.038 128.729 178.487 125.945 185.606 122.436C192.463 119.056 198.976 114.978 204.998 110.267C209.871 106.455 214.422 102.229 218.596 97.6623C218.861 97.4233 219.13 97.1883 219.39 96.9433C220.177 96.2033 220.907 95.3883 221.634 94.5843C221.756 94.5043 221.88 94.4263 222.002 94.3463L222.005 94.3433L222.105 94.2973C222.255 94.2243 222.282 94.0773 222.238 93.9573L222.375 93.8243C223.005 93.1903 223.619 92.5463 224.214 91.8793C224.701 91.3353 223.821 90.6983 223.337 91.2023ZM172.875 64.8763C168.896 73.1623 164.144 81.0713 158.68 88.4633C153.089 96.0273 146.799 103.039 140.365 109.887C137.131 113.329 133.863 116.74 130.614 120.169C133.477 116.431 136.295 112.66 139.062 108.848C144.152 101.837 149.107 94.7303 153.893 87.5083C158.458 80.6183 162.914 73.6493 167.093 66.5163C171.198 59.5093 175.061 52.3503 178.427 44.9573C180.879 39.5713 183.048 34.0503 184.86 28.4153C182.456 41.0163 178.436 53.2953 172.875 64.8763ZM185.23 23.2523C185.234 23.2463 185.238 23.2403 185.242 23.2343C185.182 23.6213 185.122 24.0093 185.062 24.3963C183.303 30.4143 181.167 36.3053 178.692 42.0793C175.509 49.5063 171.819 56.7123 167.809 63.7253C163.715 70.8853 159.314 77.8673 154.804 84.7713C150.124 91.9373 145.306 99.0173 140.348 105.994C136.139 111.916 131.818 117.76 127.425 123.548C126.034 125.032 124.655 126.526 123.283 128.028C123.369 127.799 123.454 127.57 123.541 127.341C127.924 120.438 132.313 113.539 136.669 106.619C141.45 99.0263 146.251 91.4463 151.026 83.8493C155.538 76.6703 160.08 69.5083 164.469 62.2533C168.753 55.1703 172.903 48.0023 176.738 40.6643C179.563 35.2583 182.217 29.7713 184.633 24.1753C184.835 23.8693 185.032 23.5613 185.23 23.2523ZM181.959 26.7743C181.962 26.7863 181.963 26.7993 181.967 26.8113C181.906 26.9073 181.845 27.0043 181.784 27.1003C181.841 26.9903 181.901 26.8833 181.959 26.7743ZM181.314 27.9713C181.32 28.0303 181.338 28.0853 181.371 28.1323C181.142 28.4703 180.909 28.8063 180.681 29.1453C180.898 28.7573 181.101 28.3613 181.314 27.9713ZM181.822 28.3653C180.43 31.4573 178.976 34.5213 177.443 37.5433C173.664 44.9873 169.539 52.2503 165.256 59.4133C160.979 66.5653 156.556 73.6293 152.139 80.6963C147.381 88.3083 142.647 95.9363 137.894 103.551C133.321 110.879 128.775 118.225 124.228 125.57C126.583 119.549 129.208 113.632 132.05 107.826C135.56 100.653 139.411 93.6533 143.476 86.7813C147.537 79.9153 151.824 73.1893 156.16 66.4943C160.496 59.8003 164.975 53.1973 169.455 46.5983C173.579 40.5233 177.709 34.4503 181.822 28.3653ZM141.783 81.6973C149.345 71.0813 157.927 61.2433 165.905 50.9473C162.992 55.2383 160.085 59.5333 157.22 63.8573C152.814 70.5073 148.484 77.2023 144.363 84.0333C140.257 90.8393 136.344 97.7643 132.719 104.839C129.083 111.936 125.764 119.194 122.893 126.635C122.541 127.548 122.196 128.463 121.857 129.381C121.828 129.46 121.827 129.531 121.838 129.599C121.772 129.671 121.705 129.742 121.64 129.815C122.98 112.071 131.616 95.9723 141.783 81.6973ZM124.852 54.5333C121.859 63.1593 118.28 71.5933 115.86 80.4113C114.617 84.9393 113.725 89.5363 113.297 94.2143C112.826 99.3753 112.787 104.56 112.634 109.737C112.483 114.845 112.199 119.957 111.298 124.995C110.451 129.728 109.126 134.362 107.488 138.879C104.456 147.237 100.411 155.199 96.2225 163.034C96.3295 162.608 96.4265 162.181 96.5265 161.753C99.7544 154.321 102.178 146.547 103.61 138.566C105.298 129.155 105.234 119.653 105.533 110.131C105.685 105.302 105.953 100.467 106.666 95.6843C107.324 91.2683 108.424 86.9533 109.923 82.7483C112.754 74.8043 116.792 67.4063 120.666 59.9433C123.21 55.0423 125.71 50.0853 127.778 44.9593C126.948 48.1853 125.947 51.3773 124.852 54.5333ZM129.265 37.9843C129.23 38.2003 129.187 38.4153 129.149 38.6313C129.025 39.0353 128.899 39.4393 128.765 39.8413C128.11 41.7973 127.38 43.7283 126.594 45.6353C124.999 49.5043 123.175 53.2743 121.289 57.0083C117.5 64.5103 113.443 71.9283 110.38 79.7683C108.853 83.6753 107.596 87.6893 106.761 91.8033C105.809 96.4973 105.366 101.275 105.132 106.054C104.665 115.605 104.913 125.187 103.636 134.687C103.012 139.327 102.044 143.898 100.828 148.417C99.7654 152.367 98.4964 156.319 96.8984 160.098C97.2674 158.372 97.5894 156.636 97.8554 154.894C99.4104 144.704 99.4575 134.393 99.5915 124.111C99.7315 113.379 100.003 102.533 102.309 92.0093C103.459 86.7583 105.153 81.6263 107.52 76.7943C109.937 71.8613 112.974 67.2703 116.032 62.7193C121.225 54.9873 126.708 47.0243 129.265 37.9843ZM125.414 42.3473C126.291 41.1363 127.118 39.8913 127.881 38.6093C125.463 46.0613 121.28 52.8483 116.893 59.4013C113.912 63.8553 110.868 68.2763 108.261 72.9653C105.668 77.6283 103.651 82.5533 102.239 87.6993C99.4135 97.9963 98.8104 108.721 98.6255 119.347C98.4464 129.644 98.6554 139.964 97.5794 150.222C97.1904 153.927 96.6125 157.624 95.8115 161.267C96.8865 153.527 96.7305 145.64 96.1605 137.851C95.4545 128.195 94.1664 118.58 93.9524 108.891C93.7504 99.7733 94.4515 90.4723 97.4795 81.8083C98.9195 77.6883 100.897 73.8013 103.367 70.2053C105.695 66.8143 108.367 63.6723 111.085 60.5913C116.183 54.8143 121.668 49.1393 125.414 42.3473ZM93.4264 151.622C92.0464 139.456 89.8444 127.365 89.2844 115.117C88.7944 104.395 89.6134 93.3783 93.2664 83.2133C95.1034 78.1013 97.6794 73.3183 100.978 69.0003C104.364 64.5683 108.334 60.6303 112.302 56.7263C115.856 53.2303 119.51 49.6523 122.744 45.7713C122.019 46.8583 121.27 47.9303 120.466 48.9743C117.954 52.2333 115.181 55.2753 112.425 58.3273C106.804 64.5513 101.326 70.9213 98.0564 78.7433C94.5825 87.0533 93.4664 96.1513 93.3874 105.097C93.3034 114.641 94.4524 124.12 95.2264 133.617C96.0494 143.721 96.5214 154.021 94.5714 164.031C94.5304 164.241 94.4824 164.45 94.4394 164.66C94.4264 163.407 94.3614 162.154 94.2794 160.903C94.0734 157.802 93.7764 154.709 93.4264 151.622ZM57.6094 143.541C59.1264 146.541 60.6824 149.523 61.9734 152.629C63.2814 155.777 64.3574 159.022 65.2024 162.323C66.8854 168.892 67.6454 175.707 67.4414 182.486C67.2364 189.298 66.0854 196.088 63.9554 202.564C63.4724 204.034 62.9264 205.499 62.3724 206.968C62.3634 206.977 62.3524 206.983 62.3434 206.993C62.0824 207.299 61.9904 207.711 61.8594 208.084C61.8044 208.242 61.7454 208.399 61.6894 208.557C61.9014 207.327 62.1164 206.098 62.3334 204.869C63.5234 198.135 64.7325 191.365 64.9165 184.512C65.0044 181.222 64.8524 177.934 64.3894 174.675C63.9434 171.536 63.2374 168.44 62.4034 165.383C60.7404 159.287 58.5714 153.349 56.7184 147.311C55.4764 143.266 54.4624 139.188 53.7874 135.041C54.8454 137.966 56.2074 140.77 57.6094 143.541ZM52.8154 135.777C53.3204 138.848 54.0704 141.876 54.9224 144.867C56.6634 150.98 58.8724 156.945 60.7004 163.03C62.5434 169.165 63.9234 175.444 64.0664 181.87C64.2104 188.307 63.2794 194.71 62.2104 201.044C62.2214 200.945 62.2325 200.845 62.2425 200.745C62.5215 198.138 62.6554 195.517 62.6644 192.896C62.6804 187.703 62.2325 182.504 61.3935 177.38C60.5494 172.221 59.2814 167.179 57.8174 162.165C56.3144 157.018 54.4654 151.978 53.1614 146.772C52.4414 143.899 51.9684 140.955 51.8724 137.992C51.8054 135.929 51.9834 133.915 52.3234 131.91C52.4374 133.212 52.6064 134.507 52.8154 135.777ZM59.7054 185.447C58.5724 178.835 56.5964 172.475 54.5294 166.108C52.5044 159.871 50.5114 153.562 49.8554 147.008C49.3424 141.884 49.6524 136.598 51.3324 131.716C51.4674 131.463 51.5884 131.204 51.6934 130.961C51.8764 130.538 52.0414 130.107 52.1964 129.673C52.2034 129.904 52.2144 130.135 52.2244 130.367C51.6344 132.426 51.4314 134.617 51.4144 136.74C51.3944 139.338 51.6834 141.93 52.1754 144.478C53.1854 149.71 54.9654 154.724 56.5394 159.802C58.0984 164.83 59.3354 169.961 60.2774 175.14C61.2114 180.277 61.8154 185.479 61.9304 190.701C61.9954 193.657 61.9014 196.619 61.6404 199.564C61.5114 201.026 61.3395 202.486 61.1194 203.938L61.1084 204.006C61.2194 197.795 60.7544 191.568 59.7054 185.447ZM7.63445 112.963C11.4394 120.62 16.1455 127.758 20.6025 135.04C25.0565 142.317 29.0934 149.833 32.7904 157.52C36.4474 165.124 39.8064 172.871 42.9654 180.694C43.5144 182.055 44.0524 183.42 44.5924 184.785C44.4764 184.568 44.3624 184.35 44.2454 184.133C38.8284 174.09 32.7485 164.426 26.8675 154.654C21.0655 145.014 15.4204 135.251 10.8084 124.975C6.73445 115.899 3.47045 106.402 1.68645 96.6023C2.84845 102.295 5.07045 107.804 7.63445 112.963ZM29.3164 171.258C23.3604 163.754 17.5814 156.076 13.1544 147.549C8.89144 139.338 5.74345 130.55 3.81145 121.504C3.01545 117.778 2.42844 114.008 2.04444 110.217C2.79844 114.109 3.84744 117.948 5.09444 121.71C7.62244 129.339 10.8484 136.721 14.4754 143.888C18.0664 150.984 22.0144 157.902 26.1974 164.664C29.1904 169.503 32.3115 174.262 35.4775 178.99C33.4324 176.405 31.3644 173.838 29.3164 171.258ZM48.8774 197.281C46.5104 193.811 44.1364 190.347 41.7694 186.877C37.2924 180.314 32.8434 173.73 28.5824 167.024C24.3114 160.301 20.1655 153.489 16.4495 146.441C12.7305 139.385 9.34344 132.122 6.58344 124.634C4.26744 118.349 2.53944 111.834 1.65644 105.195C1.55444 103.27 1.50244 101.342 1.50644 99.4143C1.91344 101.457 2.38944 103.485 2.90644 105.486C4.26144 110.722 6.02145 115.849 8.04345 120.864C12.2124 131.197 17.5044 141.038 23.1374 150.638C28.9094 160.475 35.0014 170.124 40.5754 180.077C43.9384 186.082 47.1094 192.208 49.8904 198.504C49.9624 198.692 50.0335 198.881 50.1045 199.069C49.6954 198.472 49.2844 197.878 48.8774 197.281ZM47.9734 191.357C46.9544 188.717 45.9285 186.08 44.8805 183.451C41.7545 175.612 38.4944 167.82 34.9034 160.182C31.3364 152.594 27.4624 145.145 23.1464 137.955C18.7084 130.561 13.7565 123.465 9.65845 115.869C6.08845 109.252 3.16145 102.141 1.88045 94.7023C1.96345 94.9073 2.05344 95.1093 2.13744 95.3133C2.34944 95.8713 2.57445 96.4253 2.82645 96.9663C2.86845 97.0553 2.91545 97.1413 2.95745 97.2303C5.15245 102.162 7.83544 106.886 10.7154 111.434C15.1314 118.407 20.0504 125.042 24.7944 131.791C29.6554 138.706 34.2694 145.776 38.1374 153.301C42.0884 160.987 45.3564 169.026 47.8944 177.287C50.4474 185.6 52.2564 194.151 53.2884 202.786C53.3144 203.005 53.3344 203.225 53.3594 203.445C51.7354 199.345 49.9224 195.318 47.9734 191.357ZM56.7174 219.475C56.7104 219.457 56.7044 219.438 56.6974 219.42C56.7054 219.423 56.7114 219.43 56.7194 219.433C56.7194 219.447 56.7184 219.461 56.7174 219.475ZM56.6774 212.834C56.7715 213.071 56.8604 213.31 56.9564 213.547C57.1074 214.067 57.2484 214.589 57.3714 215.116C57.1504 214.352 56.9174 213.592 56.6774 212.834ZM138.985 191.406C133.681 196.784 128.874 202.617 123.734 208.146C118.615 213.651 113.075 218.825 106.552 222.634C99.9525 226.488 92.7415 229.101 85.6025 231.755C83.8975 232.389 82.1874 233.029 80.4844 233.691C80.8324 233.53 81.1794 233.367 81.5274 233.207C87.5154 230.441 93.5624 227.785 99.4204 224.749C105.19 221.759 110.817 218.393 115.849 214.261C121.494 209.625 126.157 203.995 131.082 198.637C134.278 195.159 137.684 191.755 141.498 188.928C140.645 189.745 139.806 190.574 138.985 191.406ZM136.498 190.642C130.378 195.475 125.144 201.292 119.373 206.514C116.438 209.17 113.369 211.681 110.019 213.799C106.667 215.919 103.103 217.682 99.4884 219.303C92.4424 222.462 85.1375 225.077 78.3525 228.796C75.9975 230.087 73.6904 231.524 71.5044 233.123C76.0634 229.149 81.2835 226.058 86.6045 223.211C92.4225 220.098 98.3394 217.164 103.82 213.466C109.652 209.531 115.052 204.995 120.552 200.618C125.93 196.338 131.465 192.191 137.566 188.986C138.806 188.335 140.072 187.728 141.357 187.163C139.679 188.239 138.061 189.408 136.498 190.642ZM77.1464 227.432C82.9974 222.769 89.4035 218.881 95.6605 214.802C98.8305 212.736 101.947 210.598 104.982 208.338C107.974 206.11 110.904 203.801 113.853 201.517C119.661 197.018 125.578 192.582 132.1 189.155C136.062 187.073 140.217 185.393 144.527 184.293C144.558 184.361 144.605 184.421 144.682 184.442C144.832 184.483 144.99 184.493 145.151 184.491C143.316 185.134 141.514 185.873 139.768 186.706C133.526 189.681 127.868 193.678 122.463 197.958C116.905 202.36 111.564 207.034 105.831 211.212C103.038 213.247 100.148 215.137 97.1535 216.86C94.2824 218.511 91.3484 220.049 88.4275 221.609C82.7244 224.654 76.9274 227.797 72.0314 232.069C71.4164 232.605 70.8164 233.158 70.2304 233.726C70.1144 233.838 70.1734 234.005 70.2785 234.063C69.7915 234.443 69.2984 234.817 68.8274 235.216C71.3554 232.382 74.1754 229.8 77.1464 227.432ZM64.1264 241.384C67.6644 237.052 72.0904 233.554 76.9524 230.724C83.5014 226.912 90.6195 224.259 97.5595 221.269C101.164 219.716 104.736 218.066 108.148 216.118C111.536 214.183 114.716 211.932 117.707 209.428C123.681 204.425 128.894 198.592 134.812 193.527C135.106 193.275 135.41 193.033 135.708 192.785C134.671 193.78 133.661 194.799 132.678 195.833C127.59 201.186 122.965 207.004 117.461 211.95C112.537 216.374 106.967 220.001 101.166 223.161C95.3545 226.327 89.3275 229.067 83.3265 231.847C79.5045 233.618 75.6864 235.417 71.9484 237.365C69.5474 238.53 67.2034 239.806 64.9614 241.265C64.8824 241.316 64.8075 241.373 64.7295 241.425C64.3855 241.635 64.0394 241.842 63.6974 242.056C63.8384 241.831 63.9834 241.608 64.1264 241.384ZM212.694 145.167C212.64 145.208 212.584 145.243 212.53 145.283C212.512 145.267 212.498 145.249 212.476 145.236C212.548 145.212 212.622 145.191 212.694 145.167ZM59.8805 94.8153C59.9114 94.6753 59.9464 94.5363 59.9784 94.3963C59.8944 98.8983 60.6154 103.428 61.8254 107.763C63.8464 115.003 67.1424 121.758 70.7804 128.308C74.4364 134.891 78.3844 141.323 81.6164 148.133C84.5444 154.303 86.8064 160.788 87.6255 167.588C87.0164 165.446 86.2714 163.343 85.4374 161.296C83.1604 155.707 80.1714 150.451 77.0294 145.311C73.7924 140.017 70.3354 134.842 67.3285 129.411C64.3795 124.086 61.8534 118.509 60.3994 112.58C58.9774 106.788 58.5895 100.67 59.8805 94.8153ZM72.0075 147.554C67.5115 142.509 62.8454 137.417 60.1284 131.142C57.3784 124.792 56.6504 117.734 57.0724 110.877C57.1194 110.11 57.1864 109.347 57.2614 108.585C57.3434 110.015 57.5004 111.44 57.7324 112.845C58.6754 118.562 60.7984 124.016 63.4064 129.167C66.0614 134.41 69.2474 139.355 72.4504 144.274C75.6444 149.18 78.8454 154.098 81.5424 159.3C81.9274 160.042 82.2985 160.792 82.6605 161.546C79.6945 156.478 75.9065 151.929 72.0075 147.554ZM204.007 150.512C199.53 152.522 194.772 153.825 189.965 154.767C179.93 156.735 169.655 157.042 159.62 159.016C154.613 160.001 149.642 161.388 145.017 163.575C140.405 165.755 136.356 168.758 132.776 172.379C125.747 179.489 120.39 188.367 111.889 193.923C102.992 199.737 92.1274 201.388 81.7765 202.582C80.9245 202.68 80.0765 202.79 79.2295 202.908L79.2485 202.881C79.3115 202.856 79.3724 202.818 79.4224 202.749C79.5444 202.58 79.6574 202.402 79.7635 202.219C88.9614 200.504 97.3105 195.378 104.664 189.802C112.602 183.783 119.785 176.832 127.726 170.815C131.722 167.787 135.912 165.007 140.4 162.759C144.855 160.528 149.542 158.804 154.331 157.443C163.984 154.7 174.02 153.432 183.993 152.539C188.773 152.111 193.576 151.868 198.337 151.246C200.792 150.926 203.243 150.474 205.606 149.756C205.078 150.018 204.545 150.27 204.007 150.512ZM210.354 145.861C210.762 145.89 211.17 145.919 211.578 145.952C204.441 150.722 195.145 150.941 186.857 151.682C176.955 152.567 167.036 153.554 157.367 155.962C152.648 157.137 148.009 158.651 143.556 160.613C139.069 162.591 134.829 165.05 130.817 167.866C122.648 173.602 115.5 180.602 107.751 186.863C100.291 192.89 92.1374 198.395 82.8444 201.117C81.8874 201.397 80.9184 201.642 79.9474 201.873L79.9824 201.808C84.8884 194.797 91.7534 189.524 99.1374 185.243C108.22 179.978 118 175.966 126.723 170.073C134.842 164.588 142.136 157.748 151.044 153.498C160.145 149.156 170.272 148.375 180.209 148.144C190.206 147.912 200.46 148.317 210.239 145.892L210.354 145.861ZM198.565 146.43C193.468 146.803 188.354 146.83 183.246 146.912C173.25 147.073 162.992 147.475 153.582 151.202C144.359 154.855 136.853 161.512 128.907 167.249C124.625 170.34 120.112 173.026 115.442 175.488C110.729 177.973 105.926 180.286 101.256 182.854C94.2674 186.697 87.2095 191.323 82.0745 197.556C86.2425 191.707 92.0304 187.074 98.0604 183.237C106.439 177.905 115.579 173.859 123.792 168.254C127.934 165.427 131.708 162.13 135.604 158.984C139.449 155.879 143.452 153.022 147.896 150.832C156.564 146.561 166.206 144.571 175.806 143.992C186.04 143.374 196.271 144.338 206.438 145.475C203.833 145.9 201.215 146.236 198.565 146.43ZM93.4154 181.017C97.0214 178.009 101.049 175.629 105.377 173.818C110.149 171.822 115.137 170.38 119.863 168.267C122.172 167.235 124.415 166.036 126.483 164.575C128.453 163.184 130.251 161.563 131.96 159.867C135.446 156.409 138.594 152.595 142.328 149.392C150.785 142.137 162.024 140.582 172.808 141.091C178.741 141.371 184.648 142.137 190.549 142.787C195.777 143.363 201.006 143.939 206.24 144.466C206.133 144.555 206.089 144.698 206.101 144.842C205.473 144.765 204.845 144.686 204.217 144.611C201.465 144.284 198.705 144.006 195.944 143.769C190.533 143.305 185.101 143.04 179.669 143.167C169.872 143.396 159.992 144.948 150.915 148.755C146.386 150.654 142.18 153.147 138.265 156.106C134.242 159.146 130.49 162.527 126.465 165.565C118.296 171.73 108.925 175.929 100.159 181.129C94.0564 184.75 88.0994 188.999 83.4914 194.438C83.5994 194.196 83.7104 193.955 83.8164 193.713C84.4464 192.274 85.0454 190.823 85.6204 189.363C87.8664 186.282 90.4794 183.467 93.4154 181.017ZM87.9535 173.542C87.0145 169.254 85.4135 165.098 83.5075 161.167C80.9865 155.965 77.8774 151.067 74.7044 146.244C71.4894 141.357 68.2094 136.511 65.3514 131.402C62.5114 126.325 60.0704 120.96 58.7444 115.275C57.9334 111.798 57.6074 108.26 57.7434 104.732C58.0484 102.73 58.4274 100.739 58.8504 98.7573C58.7734 99.5993 58.7234 100.441 58.7015 101.274C58.6225 104.23 58.8944 107.189 59.4374 110.095C60.5454 116.027 62.7325 121.687 65.4385 127.062C68.2105 132.568 71.4575 137.81 74.6945 143.049C77.9204 148.271 81.0815 153.549 83.5915 159.16C85.6025 163.657 87.1404 168.324 87.9594 173.162C87.9594 173.29 87.9545 173.416 87.9535 173.542ZM89.0844 173.277C89.0945 172.714 89.0964 172.15 89.0834 171.587C88.9154 164.599 87.0965 157.765 84.3924 151.351C81.4534 144.379 77.5934 137.853 73.8614 131.287C70.1214 124.707 66.4804 118.031 64.0254 110.847C62.8154 107.306 61.8954 103.655 61.4034 99.9433C61.3194 99.3073 61.2555 98.6723 61.2015 98.0373C61.8364 100.484 62.7734 102.862 63.8894 105.091C65.2914 107.892 66.9405 110.557 68.5395 113.247C70.2524 116.129 71.9214 119.038 73.5404 121.974C76.6984 127.699 79.7684 133.498 82.5034 139.439C85.1714 145.235 87.4634 151.26 88.6684 157.544C89.6614 162.716 89.9214 168.07 89.0844 173.277ZM133.753 129.317C139.067 124.362 144.959 120.014 151.276 116.423C157.808 112.711 164.761 109.862 171.975 107.777C179.866 105.497 187.958 104.011 195.983 102.299C202.568 100.894 209.234 99.3363 215.587 97.0163C214.173 97.8233 212.744 98.6043 211.286 99.3373C207.833 101.073 204.295 102.634 200.711 104.078C193.47 106.997 186.053 109.448 178.653 111.926C171.599 114.288 164.528 116.605 157.622 119.382C150.985 122.051 144.492 125.156 138.396 128.913C132.919 132.288 127.777 136.257 123.299 140.886C126.451 136.743 129.947 132.866 133.753 129.317ZM206.251 107.832C200.424 112.62 194.114 116.819 187.431 120.316C180.428 123.981 173.059 126.892 165.602 129.489C158.113 132.097 150.522 134.398 142.991 136.878C135.502 139.345 127.929 141.894 120.833 145.363L120.789 145.386C120.956 145.238 121.127 145.094 121.295 144.946C124.601 143.335 127.856 141.628 131.203 140.094C134.848 138.422 138.54 136.854 142.256 135.345C149.733 132.31 157.316 129.545 164.851 126.66C171.996 123.925 179.123 121.104 186.073 117.898C192.716 114.834 199.211 111.417 205.359 107.445C207.508 106.057 209.613 104.594 211.666 103.062C209.912 104.708 208.11 106.304 206.251 107.832ZM123.231 143.279C125.041 141.75 126.891 140.268 128.797 138.855C133.061 135.693 137.547 132.832 142.267 130.398C147.554 127.672 153.096 125.472 158.715 123.533C169.654 119.758 180.914 116.962 191.749 112.88C194.97 111.666 198.183 110.328 201.325 108.834C196.921 111.511 192.365 113.937 187.725 116.177C180.919 119.462 173.941 122.342 166.901 125.083C159.441 127.987 151.937 130.774 144.503 133.742C137.283 136.622 130.135 139.703 123.231 143.279ZM215.455 98.7553C215.068 99.0823 214.673 99.3993 214.281 99.7213C208.165 104.254 201.317 107.796 194.267 110.642C183.58 114.957 172.392 117.808 161.46 121.404C155.852 123.249 150.296 125.289 144.956 127.818C140.09 130.123 135.434 132.852 131.02 135.934C127.909 138.107 124.933 140.461 122.06 142.937C124.009 140.788 126.05 138.729 128.261 136.841C130.948 134.546 133.805 132.453 136.773 130.538C142.8 126.649 149.267 123.544 155.886 120.806C162.711 117.983 169.711 115.627 176.729 113.338C184.1 110.934 191.496 108.602 198.734 105.813C205.072 103.37 211.256 100.557 217.179 97.2393C216.611 97.7513 216.04 98.2603 215.455 98.7553Z" fill="#5F5C7C"/>
</svg>
