<svg width="87" height="79" viewBox="0 0 87 79" fill="none" xmlns="http://www.w3.org/2000/svg">
<path d="M38.0824 64.524C48.7726 63.1293 57.968 56.4628 66.2547 49.5668C70.3815 46.1327 74.6229 42.2598 75.961 37.0606C76.5123 34.9191 76.349 32.2704 74.5424 30.9949C73.3785 30.1731 71.8478 30.1492 70.4233 30.1848C59.0158 30.4706 47.6564 32.599 36.9194 36.4629C29.9757 38.9617 23.1742 42.2621 17.8215 47.342C14.9721 50.0461 4.60514 62.5361 12.318 64.452C16.0289 65.3738 20.5863 64.3697 24.4034 64.5294C28.959 64.7207 33.5394 65.1172 38.0824 64.524Z" fill="#FFE7C5"/>
<path d="M23.826 37.6095C32.0421 28.3758 40.4985 18.7168 43.9339 6.84385C44.5982 4.54892 45.0654 2.12618 44.636 -0.224106C44.2066 -2.57439 42.7237 -4.84906 40.4764 -5.66144C37.736 -6.6525 34.729 -5.30228 32.2649 -3.74683C23.9223 1.51858 17.394 9.60144 14.0018 18.8653C10.6096 28.1287 10.3742 38.5164 13.3438 47.9243C17.4746 42.5927 21.6058 37.2616 25.7366 31.93" fill="#FFE7C5"/>
<path d="M58.1493 29.6723C67.2071 27.1532 76.0222 23.3699 83.4299 17.5806C84.5645 16.6939 85.6897 15.7317 86.3846 14.4701C87.0796 13.2086 87.269 11.578 86.517 10.3497C85.3643 8.46751 82.7215 8.32618 80.5211 8.49631C70.1073 9.30194 59.8884 12.3215 50.6507 17.1827C46.2314 19.5083 40.7365 22.3545 37.3155 26.0712C35.3194 28.2397 34.5619 32.8079 38.3137 33.5654C40.9822 34.1041 45.1877 32.5685 47.8535 32.0558C51.3136 31.3902 54.754 30.6165 58.1493 29.6723Z" fill="#CEBBB6"/>
<path d="M71.1882 37.6176L71.3034 37.5861C71.5244 37.5357 71.4785 37.204 71.2499 37.2351C71.1437 37.2495 71.037 37.263 70.9303 37.2765L70.8655 37.2405L70.8147 37.2234C70.78 37.1946 70.7368 37.1743 70.6787 37.1752L70.6715 37.1757C66.7681 35.8205 62.2993 35.951 58.3638 37.082C56.2044 37.7027 54.1903 38.6645 52.3041 39.881C50.1266 41.2853 48.1404 42.9559 46.0755 44.515C44.1438 45.9737 42.1266 47.2686 39.9383 48.3082C37.9233 49.266 35.8238 50.0378 33.7021 50.7229C29.3891 52.1149 24.9649 53.1479 20.6928 54.67C18.5927 55.418 16.5305 56.2871 14.5781 57.3668C13.5519 57.9344 12.5203 58.5685 11.5887 59.3148C11.9177 58.6216 12.2571 57.9335 12.6104 57.2516C12.6554 57.1648 12.7022 57.0779 12.7476 56.991C12.8318 56.8646 12.9169 56.739 12.9974 56.6103C13.2333 56.2349 13.4538 55.8519 13.6496 55.454C13.7297 55.2911 13.8301 55.107 13.9165 54.9171C14.015 54.8743 14.0925 54.7875 14.106 54.6452C14.1114 54.5854 14.1186 54.5255 14.1249 54.4652C14.1874 54.3554 14.2536 54.2483 14.3166 54.1385C14.4188 54.1137 14.5101 54.0444 14.5335 53.9125C14.5488 53.8261 14.5754 53.7442 14.5974 53.6605L14.6244 53.6146C15.9229 52.4331 16.9999 51.0294 17.9167 49.518C19.1616 48.1822 20.4889 46.9215 21.8089 45.6618C24.5859 43.0109 27.5699 40.5805 30.6988 38.3566C31.5719 37.736 32.4581 37.1329 33.356 36.5482C33.8011 36.2584 34.2485 35.9726 34.699 35.6913C35.0316 35.554 35.3647 35.4163 35.6973 35.279C35.7851 35.243 35.8724 35.2052 35.9597 35.1688C36.2329 35.1494 36.5061 35.1287 36.7793 35.1089C37.2082 35.0779 37.6385 35.0477 38.066 35C38.4909 34.9527 38.9194 34.9199 39.3303 34.7961C39.3996 34.7754 39.4198 34.7156 39.4086 34.6579C41.1684 34.5684 42.9228 34.3843 44.6605 34.0927C48.4969 33.449 52.2433 32.3216 55.8083 30.7675C59.579 29.1234 63.1441 27.0333 66.5309 24.7046C68.2326 23.5344 69.8924 22.3021 71.5217 21.0333C73.0223 19.8649 74.4814 18.6448 75.9783 17.4723C76.5441 17.0295 77.1202 16.5898 77.7075 16.1626C77.8731 16.0938 78.0401 16.0281 78.2048 15.9574C78.3016 15.916 78.3106 15.8269 78.2724 15.7598C80.3521 14.3029 82.5868 13.0567 85.0766 12.5044C85.1283 12.4972 85.1801 12.4887 85.2318 12.4815C85.6855 12.4207 86.1396 12.3672 86.5947 12.319C86.7576 12.3019 86.8849 12.1241 86.8548 11.9644L86.8174 11.8451C86.8152 11.7663 86.7814 11.6948 86.7162 11.6502C86.5087 11.3707 86.123 11.2411 85.7854 11.4193C85.7143 11.4567 85.6733 11.512 85.6477 11.5714C85.6598 11.3784 85.4798 11.1817 85.2341 11.2663C84.3866 11.5566 83.5432 11.8568 82.67 12.0634C81.8014 12.2686 80.9179 12.4104 80.0303 12.504C78.2219 12.6944 76.4001 12.6926 74.584 12.6714C72.7558 12.6498 70.9263 12.6066 69.099 12.6908C67.1268 12.7817 65.1671 13.0522 63.239 13.4743C59.3563 14.3245 55.6225 15.7531 52.0264 17.4282C50.2121 18.2735 48.4276 19.1817 46.662 20.1233C44.6996 21.1697 42.7369 22.2751 41.0437 23.7311C40.2178 24.4413 39.4594 25.2361 38.8194 26.1187C38.224 26.9396 37.7307 27.8299 37.2572 28.7251C36.3134 30.5096 35.4678 32.3986 34.1063 33.9158C34.0086 34.0247 33.9055 34.1296 33.8047 34.2358C33.6787 34.2533 33.5536 34.2668 33.4258 34.2898L33.4199 34.3474C33.4928 34.3717 33.5644 34.3929 33.6364 34.4145C33.4379 34.6161 33.2336 34.8123 33.0185 34.9959L32.9815 35.063C32.3334 35.6463 31.6273 36.1612 30.8311 36.5726C30.724 36.6279 30.6718 36.7148 30.6551 36.8061C29.9467 37.312 29.245 37.8274 28.5528 38.3566C25.2975 40.8442 22.2356 43.5914 19.4587 46.6015C19.7724 45.9273 20.0658 45.2477 20.3426 44.5713C21.8724 40.8347 22.9823 36.9259 24.8024 33.3104C25.7313 31.4651 26.8849 29.776 28.1523 28.1481C29.4435 26.4896 30.8041 24.8774 31.9392 23.1037C34.1 19.7263 35.1126 15.8408 36.3629 12.0746C37.5993 8.35071 39.2331 4.46568 42.3737 1.94122C42.7562 1.63382 43.1577 1.34802 43.5776 1.09373C43.8661 0.918652 43.799 0.385766 43.403 0.461378C43.3908 0.342109 43.2828 0.235441 43.141 0.302502C42.8651 0.433474 42.5955 0.576597 42.3233 0.715219C37.99 1.76524 33.8556 3.55068 30.1069 5.96712C26.0522 8.58115 22.4615 11.9279 19.5977 15.812C16.9095 19.4576 14.8886 23.587 13.6109 27.9307C12.3457 32.233 11.7975 36.7328 11.9992 41.2128C12.0995 43.4366 12.3885 45.6519 12.871 47.8253C13.1563 49.1098 13.5699 50.4951 13.6622 51.8624C13.6212 52.2459 13.5722 52.6285 13.5353 53.0124C13.5011 53.3643 13.47 53.7163 13.4389 54.0683C13.389 54.1133 13.3413 54.1601 13.2909 54.2042C13.1847 54.2964 13.2094 54.4243 13.2859 54.4985L13.2702 54.5345C12.2769 56.0598 11.365 57.6436 10.5369 59.2698C10.599 58.9889 10.6575 58.7072 10.7079 58.4241C11.1827 55.7596 11.1184 53.0169 10.703 50.3493C9.7893 44.4794 7.30761 39.0277 5.4398 33.431C4.90917 31.8414 4.42624 30.2351 4.04368 28.6031C3.85465 27.7957 3.68407 26.9828 3.5432 26.166C3.43878 25.5615 3.35552 24.9535 3.2565 24.3481C3.2808 24.2667 3.30196 24.1829 3.32311 24.0988C3.41493 23.9633 3.50449 23.8256 3.53465 23.6735C3.5756 23.4691 3.31636 23.2823 3.13498 23.3809C2.89104 23.5132 2.75422 23.8251 2.6363 24.0655C2.52738 24.2874 2.44322 24.5169 2.37931 24.7554C2.31135 25.0088 2.26364 25.2564 2.26769 25.5192C2.26859 25.5723 2.26634 25.6353 2.26544 25.7019C2.23304 25.778 2.20018 25.8541 2.16823 25.9306C1.88198 26.6192 1.62319 27.3191 1.39275 28.0284C0.924675 29.4673 0.57992 30.9475 0.347683 32.4427C-0.116342 35.4276 -0.116793 38.4908 0.351733 41.4752C0.866616 44.7558 2.0377 47.8149 3.44058 50.8102C4.90782 53.9431 6.52808 57.0522 7.30175 60.448C7.35306 60.6731 7.39537 60.9013 7.43902 61.129C7.40707 61.8226 7.43317 62.5278 7.40707 63.2083C7.36656 64.2548 7.2887 65.2994 7.17393 66.3404C7.06142 67.3567 6.91109 68.3653 6.72926 69.368C6.60504 69.6457 6.48622 69.918 6.38541 70.2092C6.35525 70.2965 6.36425 70.3726 6.39576 70.4329C6.3296 70.6219 6.26884 70.8123 6.19683 70.9991C6.06225 71.3493 5.91868 71.6972 5.77286 72.0428C5.69679 72.2238 5.79761 72.3606 5.93713 72.4119C5.80886 72.9619 5.68419 73.5128 5.57888 74.0686C5.53477 74.2999 5.49606 74.5326 5.45511 74.7644C5.35159 75.1321 5.24897 75.4998 5.14185 75.8662C5.118 75.949 5.17696 76.003 5.24132 76.0111C5.18956 76.3298 5.13691 76.6489 5.08695 76.968C5.04059 77.2641 4.78495 78.0036 5.14095 78.1863C5.58113 78.4127 5.63964 77.667 5.67834 77.4127C5.69364 77.3109 5.71165 77.2101 5.7274 77.1084L5.7355 77.0967C5.7175 77.3033 5.70715 77.5108 5.7202 77.7214C5.7328 77.9298 6.0285 77.9289 6.09916 77.761C6.30124 77.2803 6.39126 76.7745 6.49072 76.2618C6.59109 75.742 6.69821 75.2231 6.81163 74.7059C7.03666 73.6806 7.28825 72.6617 7.56505 71.6495C8.11999 69.6192 8.75684 67.6204 9.47515 65.6423C9.60433 65.2868 9.7416 64.9348 9.87707 64.5815C10.437 63.9411 11.2034 63.4775 12.0658 63.4181C12.1238 63.414 12.1589 63.3794 12.176 63.3357C13.876 63.5815 15.5786 63.8101 17.2812 64.032C19.5343 64.3259 21.7923 64.6009 24.062 64.7264C28.5789 64.9753 33.117 64.5509 37.2626 62.6273C41.5185 60.6524 45.0822 57.4915 48.3641 54.1956C51.5831 50.9627 54.5985 47.5228 58.0857 44.5672C61.3721 41.7812 65.1262 39.3531 69.3843 38.412C69.9028 38.2972 70.4271 38.1987 70.9501 38.106C71.2166 38.0596 71.2782 37.8022 71.1882 37.6176ZM35.5213 34.1683C38.4261 32.3617 41.4263 30.7049 44.4773 29.1684C50.6091 26.0809 56.961 23.4484 63.3326 20.9028C67.674 19.1682 72.0515 17.5034 76.3825 15.7333C75.5584 16.1865 74.7456 16.66 73.9359 17.1375C73.8967 17.1604 73.858 17.1843 73.8189 17.2077C73.7352 17.2406 73.651 17.273 73.5673 17.3058C72.1127 17.877 70.667 18.4697 69.2322 19.089C66.363 20.3281 63.5262 21.6418 60.7312 23.0402C57.916 24.4489 55.1688 25.9747 52.4121 27.4932C51.0682 28.2336 49.7157 28.9731 48.3169 29.6045C46.9797 30.2081 45.5989 30.6932 44.1956 31.1163C41.3331 31.9796 38.3316 32.6448 35.7292 34.1665C35.6595 34.1674 35.5906 34.1683 35.5213 34.1683ZM35.9903 34.1525C38.3311 32.9364 40.8862 32.2802 43.4219 31.5785C44.7892 31.2 46.1498 30.8008 47.4694 30.2765C48.8943 29.7107 50.2846 29.0496 51.6371 28.3286C54.3762 26.8676 57.0708 25.3311 59.8428 23.93C62.6629 22.5042 65.524 21.1566 68.4266 19.9063C69.414 19.481 70.4069 19.0674 71.4015 18.6592C70.7818 19.0373 70.1625 19.4171 69.5486 19.8042C66.611 21.6553 63.6815 23.5191 60.6907 25.2838C55.3488 28.4361 49.7499 31.286 43.7284 32.8856C41.1846 33.5611 38.6021 33.9644 35.9903 34.1525ZM72.6816 19.1925C71.0825 20.4982 69.4545 21.7687 67.783 22.9808C64.4587 25.3905 60.9711 27.5886 57.2702 29.3745C53.715 31.0902 49.9754 32.395 46.1066 33.1885C44.1843 33.5827 42.2458 33.8402 40.2984 33.9932C41.1054 33.8537 41.9069 33.6898 42.6991 33.5026C45.6254 32.8104 48.4726 31.8103 51.2311 30.6185C54.1188 29.3709 56.9061 27.9077 59.6312 26.3397C62.6575 24.5988 65.5853 22.6999 68.5787 20.9055C70.2435 19.9077 71.8975 18.8914 73.5718 17.9094C73.8049 17.7725 74.0417 17.6434 74.2762 17.5093C74.5741 17.3945 74.8716 17.2797 75.17 17.1658C74.3356 17.8356 73.5097 18.5161 72.6816 19.1925ZM80.1321 13.4059C75.179 15.438 70.1999 17.4075 65.2247 19.3825C58.709 21.969 52.2208 24.6294 45.9414 27.7552C42.3696 29.5334 38.8689 31.4593 35.4898 33.5773C36.1348 32.9256 36.7937 32.2879 37.4859 31.6798C38.95 30.3935 40.5027 29.2107 42.1176 28.1202C45.3779 25.9189 48.8853 24.1154 52.4908 22.5528C56.0743 20.9996 59.7586 19.7038 63.4578 18.4571C67.0583 17.2437 70.663 16.0254 74.3045 14.9384C76.2268 14.365 78.1706 13.8443 80.1321 13.4059ZM36.9102 30.6248C37.8995 28.8038 38.8055 26.9248 40.2205 25.3842C41.7305 23.7405 43.6456 22.5159 45.5818 21.437C47.3767 20.437 49.2107 19.4981 51.0605 18.6038C54.6282 16.8792 58.3211 15.3588 62.1733 14.397C64.0915 13.9181 66.0457 13.5774 68.017 13.419C69.8533 13.2714 71.6968 13.2939 73.5371 13.32C75.0534 13.3416 76.5855 13.3636 78.1099 13.2997C77.2376 13.5266 76.3681 13.7664 75.5017 14.018C71.8431 15.0802 68.2384 16.3247 64.6325 17.5511C60.8874 18.8248 57.1599 20.1552 53.5134 21.6918C49.8944 23.2166 46.3694 24.9751 43.0578 27.0918C40.1904 28.9249 37.4364 31.0385 35.0712 33.5035C35.7878 32.6218 36.3701 31.6186 36.9102 30.6248ZM18.6386 46.4724C18.3461 47.2753 17.8551 47.9828 17.3204 48.6426C16.7137 49.3915 16.0305 50.0986 15.4301 50.861C16.1542 47.9279 17.0206 45.029 18.0108 42.176C19.2795 38.5209 20.7256 34.9325 22.2397 31.3729C23.7735 27.7664 25.3627 24.1798 26.9929 20.6157C28.6721 16.9444 30.4584 13.3056 32.8551 10.0398C33.9992 8.48078 35.2751 7.01895 36.6991 5.70923C37.5124 4.96166 38.3734 4.29735 39.2709 3.68075C36.615 5.8249 35.2814 9.26211 34.1648 12.4194C33.4784 14.3596 32.7898 16.2918 31.8447 18.1245C30.8919 19.9721 29.7631 21.7237 28.587 23.4358C26.3659 26.6682 23.9553 29.7954 22.0808 33.2501C21.2027 34.8686 20.4443 36.5595 19.915 38.3256C19.6535 39.1978 19.4447 40.0881 19.3029 40.9878C19.158 41.9077 19.1112 42.8308 19.0658 43.7598C19.0203 44.6748 18.9546 45.6051 18.6386 46.4724ZM36.4278 9.89266C35.0249 13.617 34.1787 17.5583 32.3375 21.1107C30.4098 24.8297 27.2643 27.7192 25.1467 31.3162C23.0917 34.8074 21.9044 38.7046 20.5064 42.4829C20.2085 43.2885 19.8907 44.0964 19.5563 44.8994C19.6364 44.1311 19.645 43.3565 19.6963 42.5864C19.7562 41.6827 19.888 40.7848 20.0825 39.9004C20.4731 38.1235 21.1226 36.4042 21.903 34.7642C23.5656 31.2702 25.833 28.144 28.0348 24.98C29.1928 23.3161 30.3221 21.6265 31.3208 19.8609C32.3145 18.1042 33.1373 16.2779 33.8187 14.379C35.1639 10.6285 36.2941 6.46896 39.4689 3.79642C39.6692 3.62764 39.8749 3.46562 40.0859 3.31124C38.4729 5.23036 37.3117 7.54688 36.4278 9.89266ZM13.7153 30.1586C14.7455 25.8302 16.5012 21.6666 18.9375 17.9409C21.5673 13.9199 24.9604 10.4215 28.8611 7.62024C29.759 6.97529 30.6871 6.37039 31.6367 5.80195C31.3532 6.01663 31.0728 6.23447 30.7996 6.45816C27.3003 9.32872 24.5431 13.0108 21.9615 16.6951C19.4767 20.2412 17.1475 23.9268 15.4202 27.9086C13.9012 31.4107 12.8705 35.1548 12.663 38.9777C12.6495 39.2289 12.6482 39.4809 12.6419 39.7325C12.6108 36.5131 12.9704 33.2879 13.7153 30.1586ZM15.1258 29.9682C16.6282 25.9229 18.8155 22.1752 21.2117 18.6002C22.4467 16.7576 23.7249 14.9371 25.0585 13.1642C26.4357 11.3338 27.9182 9.57221 29.5777 7.9902C31.2906 6.35689 33.2322 4.909 35.3539 3.83783C36.1784 3.45662 37.0173 3.10736 37.8666 2.78511C38.3959 2.60868 38.9347 2.4588 39.4815 2.33548C37.0574 3.86033 34.7971 5.65297 32.7232 7.61844C29.6119 10.5673 26.8858 13.9213 24.5809 17.5336C22.3099 21.0932 20.4502 24.8986 18.9321 28.8362C17.4414 32.7028 16.296 36.6932 15.4238 40.7429C14.9557 42.9168 14.5641 45.1082 14.2383 47.3091C14.1429 46.9701 14.0411 46.6362 13.9507 46.3117C13.4551 44.538 13.1991 42.6972 13.1585 40.8568C13.0753 37.1423 13.8359 33.4405 15.1258 29.9682ZM13.3386 46.7168C13.2004 46.0043 13.0901 45.2873 12.9929 44.5681C13.1495 45.4259 13.3669 46.2658 13.61 47.1034C13.7801 47.6885 13.9561 48.2988 14.0155 48.9136C13.9921 49.0895 13.9651 49.2651 13.9426 49.4411C13.7418 48.5333 13.5155 47.6309 13.3386 46.7168ZM14.3445 52.3998C14.7063 49.0666 15.1722 45.7446 15.8221 42.4546C16.616 38.4354 17.6597 34.4572 19.0239 30.5929C20.4016 26.6898 22.1208 22.902 24.2362 19.3424C26.4078 15.6887 28.9746 12.2524 31.9455 9.20855C33.4204 7.69766 34.9925 6.28083 36.6573 4.98236C38.0111 3.92649 39.4288 2.97774 40.8844 2.07849C41.0221 2.05914 41.1603 2.03888 41.298 2.02223C41.1787 2.13295 41.0595 2.24412 40.9442 2.35889C38.1169 3.87383 35.7004 6.05669 33.6675 8.54559C31.1133 11.6718 29.196 15.2566 27.438 18.8739C25.6985 22.4524 24.0607 26.0899 22.4435 29.7251C20.8426 33.3244 19.3218 36.961 17.973 40.6628C16.6376 44.3269 15.4872 48.058 14.619 51.8611C14.5952 51.9651 14.5736 52.069 14.5506 52.173C14.4741 52.3157 14.4035 52.4628 14.3373 52.6123C14.3395 52.5416 14.3449 52.4709 14.3445 52.3998ZM26.2422 40.8528C24.7722 42.0666 23.3423 43.33 21.9665 44.6482C23.2303 43.4119 24.5436 42.225 25.8992 41.0881C26.0387 40.99 26.1769 40.8901 26.3169 40.7924L26.2422 40.8528ZM3.38387 28.0023C3.68722 29.4227 4.07158 30.8251 4.4996 32.2127C5.35744 34.9923 6.40161 37.7085 7.37692 40.4481C9.27262 45.7721 10.9325 51.3624 10.2713 57.0743C10.1539 58.0879 9.95943 59.0906 9.68669 60.0731C9.69209 59.9989 9.70289 59.9255 9.70739 59.8512C9.87482 57.036 9.57552 54.2096 9.00663 51.4529C7.75093 45.3719 5.25797 39.6322 3.94331 33.5656C3.44463 31.2644 3.12058 28.9146 3.09943 26.5602C3.18449 27.0472 3.28306 27.5297 3.38387 28.0023ZM4.91997 52.4277C3.43113 49.333 1.95399 46.241 1.21542 42.8668C0.563716 39.8887 0.39854 36.8124 0.711791 33.7808C0.867516 32.2757 1.13756 30.7819 1.52867 29.3201C1.6745 28.7755 1.84237 28.2408 2.02015 27.7093C1.82527 29.9155 1.93644 32.1546 2.20738 34.3438C2.5985 37.5069 3.34922 40.6079 4.14449 43.69C4.93302 46.7469 5.81201 49.7809 6.47227 52.8697C6.84043 54.5917 7.15188 56.333 7.36341 58.0852C6.69325 56.1462 5.81021 54.2775 4.91997 52.4277ZM8.32252 61.8649C8.29821 61.7051 8.26221 61.5489 8.23385 61.3905C8.14609 58.9642 7.80178 56.5486 7.31301 54.1713C6.67885 51.0865 5.79581 48.0607 4.94472 45.0308C4.07788 41.9442 3.2619 38.836 2.75197 35.6675C2.26544 32.6448 2.09981 29.5816 2.43377 26.535C2.47337 26.4288 2.51658 26.323 2.55664 26.2168C2.62865 26.1453 2.6471 26.0467 2.66061 25.9481C2.74522 25.728 2.82758 25.5075 2.9158 25.2883C2.59714 30.6221 4.00677 35.8857 5.55052 40.9585C7.28825 46.6691 9.28342 52.484 9.15695 58.5303C9.12725 59.9471 8.97872 61.3621 8.69338 62.7511C8.61777 62.9113 8.5453 63.0724 8.46429 63.2299C8.43324 62.7731 8.39093 62.3167 8.32252 61.8649ZM10.8866 60.8455C11.726 59.9579 12.7386 59.2153 13.7715 58.582C15.6668 57.4204 17.7052 56.4937 19.7791 55.7011C23.9369 54.1124 28.2729 53.0704 32.5238 51.7738C36.7883 50.4726 40.9649 48.8695 44.6546 46.3229C48.6882 43.5392 52.2186 39.9796 56.871 38.2014C59.1105 37.3453 61.4977 36.8791 63.897 36.8003C62.0999 36.9772 60.3212 37.4389 58.6465 38.0934C54.3501 39.7721 50.6825 42.7021 47.1332 45.5776C43.5065 48.5157 39.8218 51.51 35.4497 53.2703C31.242 54.9648 26.7111 55.5413 22.3013 56.4757C18.275 57.3286 14.1568 58.5456 10.8069 61.0178C10.833 60.9602 10.8609 60.9035 10.8866 60.8455ZM11.3457 62.5395C11.2372 62.562 11.131 62.5904 11.0234 62.6156L11.014 62.6147C11.122 62.5517 11.2286 62.4869 11.338 62.4261C12.28 61.9027 13.2639 61.4549 14.2702 61.0705C16.3401 60.2797 18.5063 59.7612 20.6842 59.3701C25.0441 58.5879 29.4836 58.3521 33.8326 57.4987C35.9903 57.0752 38.1304 56.5014 40.1593 55.6449C42.3075 54.738 44.2685 53.4827 46.0764 52.0159C49.7981 48.9968 52.9171 45.2797 56.9331 42.6184C58.2662 41.7349 59.6623 40.9882 61.1034 40.3496C60.0489 41.0053 59.0327 41.7236 58.0524 42.4834C56.2953 43.8448 54.6795 45.3728 53.0728 46.9049C51.3288 48.5675 49.6261 50.2732 47.8555 51.9079C44.3634 55.1322 40.5801 58.1153 36.0258 59.6636C32.0936 61.0003 27.9079 61.3009 23.7875 61.4801C19.6333 61.6619 15.4314 61.6903 11.3457 62.5395ZM38.7762 61.0953C36.7811 62.2276 34.6387 63.0841 32.3933 63.5662C30.2087 64.0347 27.9668 64.1832 25.7363 64.1427C23.481 64.1017 21.2338 63.8794 18.996 63.6089C17.4828 63.4262 15.9715 63.2327 14.4597 63.04C16.7429 62.8591 19.0604 62.9397 21.335 63.0288C23.4787 63.1125 25.6269 63.2007 27.7711 63.0864C29.9931 62.968 32.1809 62.5899 34.2922 61.8793C38.7956 60.3634 42.7409 57.5599 46.3411 54.5215C48.2035 52.9498 49.9956 51.2981 51.7968 49.6562C51.0367 50.4483 50.2805 51.2449 49.5199 52.0362C46.2798 55.4068 42.8728 58.7706 38.7762 61.0953ZM64.7229 39.2658C62.7566 40.2055 60.9198 41.4063 59.1992 42.7399C59.1236 42.7989 59.0511 42.861 58.9759 42.9204C58.8301 43.0293 58.6807 43.1333 58.5362 43.2435C54.7012 46.1677 51.3067 49.5936 47.7232 52.8081C44.1514 56.0117 40.2714 59.0479 35.8175 60.9206C33.6868 61.8167 31.4495 62.4014 29.1496 62.6363C27.0005 62.8555 24.8361 62.8154 22.6803 62.7389C19.4717 62.625 16.1938 62.4104 13.0042 62.8568C12.5924 62.8051 12.181 62.752 11.7692 62.7016C13.2076 62.4684 14.6505 62.2753 16.107 62.1601C18.198 61.9949 20.2936 61.9193 22.3891 61.8428C26.492 61.6925 30.647 61.5237 34.6306 60.4408C36.7806 59.8567 38.8293 58.9907 40.7529 57.8664C42.8048 56.6674 44.6996 55.2195 46.4981 53.6708C48.3335 52.0902 50.0663 50.3966 51.8067 48.7137C53.4306 47.1434 55.0743 45.6172 56.8183 44.1806C59.471 41.9959 62.378 39.9828 65.5997 38.7478C65.8931 38.6663 66.1861 38.5835 66.4823 38.5092C65.8832 38.7401 65.2941 38.9926 64.7229 39.2658ZM67.404 37.5326C66.3328 37.7306 65.2729 37.9952 64.235 38.3184C62.1319 38.9737 60.0998 39.8567 58.1879 40.9509C56.1819 42.099 54.3411 43.478 52.6137 45.0105C50.7783 46.6389 49.055 48.3888 47.2272 50.0261C45.4324 51.6343 43.5249 53.1375 41.3736 54.242C39.4117 55.2492 37.3063 55.9451 35.1626 56.4473C30.7969 57.4704 26.3079 57.7238 21.8922 58.4425C19.6936 58.8003 17.5085 59.2693 15.3941 59.9786C13.7819 60.5192 12.1751 61.2051 10.7165 62.1066C10.6336 62.049 10.4973 62.0566 10.4379 62.1759C10.4122 62.2272 10.3893 62.2803 10.3636 62.3316C10.3132 62.3645 10.2614 62.3955 10.2115 62.4288C10.2844 62.2519 10.3591 62.0755 10.4334 61.8995C13.4578 59.4214 17.2601 58.0883 21.0362 57.1945C25.3209 56.18 29.7257 55.6606 33.9172 54.2663C36.0659 53.5516 38.0939 52.5722 40.0148 51.3759C41.9704 50.1585 43.8022 48.7556 45.5975 47.3163C49.2355 44.3998 52.7766 41.2583 56.9817 39.1677C60.4774 37.4295 64.4826 36.4866 68.369 37.236C68.4198 37.2459 68.4698 37.2594 68.5206 37.2702C68.1453 37.3422 67.7735 37.4326 67.404 37.5326Z" fill="#5F5C7C"/>
</svg>
