<svg width="313" height="29" viewBox="0 0 313 29" fill="none" xmlns="http://www.w3.org/2000/svg">
<path d="M3.19922 0.707031H12.9199V1.56836H9.89648V22.4512C9.89648 23.5996 9.61523 24.625 9.05273 25.5273C8.49023 26.4297 7.74023 27.1328 6.80273 27.6367C5.86523 28.1406 4.86914 28.3926 3.81445 28.3926C2.91211 28.3926 2.06836 28.1113 1.2832 27.5488C0.498047 26.998 0.105469 26.2188 0.105469 25.2109C0.105469 24.5547 0.275391 24.0273 0.615234 23.6289C0.955078 23.2188 1.43555 23.0137 2.05664 23.0137C2.58398 23.0137 3.02344 23.1953 3.375 23.5586C3.73828 23.9102 3.91992 24.3555 3.91992 24.8945C3.91992 25.2109 3.86719 25.4746 3.76172 25.6855C3.66797 25.9082 3.55664 26.1133 3.42773 26.3008C3.29883 26.4883 3.23438 26.6289 3.23438 26.7227C3.23438 27.1328 3.62109 27.3379 4.39453 27.3379C5.01562 27.3379 5.50781 27.1152 5.87109 26.6699C6.23438 26.2246 6.41602 25.6562 6.41602 24.9648V1.56836H3.19922V0.707031ZM28.1362 15.1387H34.3237L31.3706 5.3125H31.3003L28.1362 15.1387ZM28.3472 25H21.3335V24.1738H24.1812L31.9859 0.373047H33.3921L40.8101 24.1738H43.3237V25H34.2534V24.1738H37.1714L34.6929 16.1758H27.8198L25.2534 24.1738H28.3472V25ZM70.2647 0.988281V7.17578H69.4385C69.1807 5.99219 68.7823 4.93164 68.2432 3.99414C67.7041 3.05664 67.001 2.32422 66.1338 1.79688C65.2666 1.25781 64.2295 0.988281 63.0225 0.988281C61.9795 0.988281 61.0245 1.28711 60.1573 1.88477C59.3018 2.48242 58.6631 3.16797 58.2412 3.94141C57.2569 5.80469 56.7647 9.08008 56.7647 13.7676C56.7647 15.4902 56.8409 16.9785 56.9932 18.2324C57.1455 19.4863 57.4502 20.5996 57.9073 21.5723C58.3643 22.5332 59.0147 23.2656 59.8584 23.7695C60.7022 24.2734 61.8155 24.5254 63.1983 24.5254C64.2881 24.5254 65.2784 24.25 66.169 23.6992C67.0713 23.1367 67.8155 22.3984 68.4014 21.4844C68.9991 20.5586 69.4737 19.5215 69.8252 18.373H70.6866V25H69.7198L68.7178 23.5234C67.1241 24.8711 65.2373 25.5449 63.0577 25.5449C61.4405 25.5449 59.9815 25.2109 58.6807 24.543C57.3916 23.875 56.2959 22.9492 55.3936 21.7656C54.4912 20.582 53.8057 19.2227 53.337 17.6875C52.8799 16.1523 52.6514 14.5 52.6514 12.7305C52.6514 11.0195 52.9561 9.38477 53.5655 7.82617C54.1748 6.25586 54.9893 4.9082 56.0088 3.7832C57.0284 2.64648 58.1651 1.76172 59.419 1.12891C60.6729 0.484375 61.9327 0.162109 63.1983 0.162109C64.1944 0.162109 65.0967 0.320312 65.9053 0.636719C66.7256 0.941406 67.587 1.42773 68.4893 2.0957L69.7198 0.988281H70.2647ZM97.3814 1.56836H94.147V0.707031H101.301V1.56836H98.647L90.315 10.5684L101.266 24.1738H102.954V25H93.813V24.1738H96.6959L87.5904 12.3262C87.5904 12.0801 87.6841 11.8633 87.8716 11.6758L97.3814 1.56836ZM89.9986 24.1738V25H80.9634V24.1738H83.7408V1.56836H80.9634V0.707031H89.9986V1.56836H87.2213V24.1738H89.9986ZM120.807 24.1738V25H111.139V24.1738H114.232V1.56836H111.139V0.707031H120.807V1.56836H117.713V24.1738H120.807ZM148.275 25H129.519V24.1738H132.701V1.56836H129.519V0.707031H147.783V6.64844H146.992C146.793 5.25391 146.423 4.19336 145.884 3.4668C145.357 2.72852 144.683 2.23047 143.863 1.97266C143.054 1.70313 142.058 1.56836 140.875 1.56836H136.181V12.0098C137.611 12.0098 138.63 11.9512 139.24 11.834C139.861 11.7051 140.347 11.3652 140.699 10.8145C141.062 10.252 141.32 9.34961 141.472 8.10742H142.263V17.3359H141.472C141.402 16.0703 141.179 15.127 140.804 14.5059C140.441 13.873 139.914 13.4629 139.222 13.2754C138.531 13.0762 137.517 12.9648 136.181 12.9414V24.1738H140.541C141.853 24.1738 142.896 24.1094 143.67 23.9805C144.443 23.8516 145.099 23.5879 145.638 23.1895C146.177 22.7793 146.617 22.1934 146.957 21.4316C147.296 20.6699 147.584 19.5918 147.818 18.1973H148.75L148.275 25ZM191.68 25H173.715V24.1738H176.669V1.56836H173.715V0.707031H183.471V1.56836H180.149V24.1738H186.6C187.514 24.1738 188.299 23.8633 188.956 23.2422C189.624 22.6094 190.151 21.8418 190.538 20.9395C190.936 20.0254 191.217 19.1113 191.381 18.1973H192.067L191.68 25ZM210.922 25.5449C209.434 25.5449 208.057 25.1992 206.791 24.5078C205.526 23.8164 204.424 22.8555 203.486 21.625C202.549 20.3945 201.828 19.0176 201.324 17.4941C200.832 15.9707 200.586 14.418 200.586 12.8359C200.586 11.2422 200.832 9.68359 201.324 8.16016C201.817 6.63672 202.526 5.27148 203.451 4.06445C204.377 2.8457 205.473 1.89062 206.738 1.19922C208.016 0.507813 209.41 0.162109 210.922 0.162109C212.434 0.162109 213.834 0.513672 215.123 1.2168C216.412 1.91992 217.508 2.86328 218.41 4.04688C219.313 5.23047 220.01 6.5957 220.502 8.14258C221.006 9.67773 221.258 11.2422 221.258 12.8359C221.258 14.418 221.006 15.9824 220.502 17.5293C219.998 19.0645 219.283 20.4355 218.358 21.6426C217.444 22.8496 216.348 23.8047 215.07 24.5078C213.793 25.1992 212.41 25.5449 210.922 25.5449ZM210.922 24.7188C212.539 24.7188 213.799 24.2676 214.701 23.3652C215.604 22.4629 216.236 21.1504 216.6 19.4277C216.963 17.6934 217.145 15.5078 217.145 12.8711C217.145 10.2227 216.963 8.03711 216.6 6.31445C216.236 4.58008 215.604 3.26172 214.701 2.35938C213.811 1.44531 212.551 0.988281 210.922 0.988281C209.293 0.988281 208.027 1.44531 207.125 2.35938C206.235 3.26172 205.608 4.58008 205.244 6.31445C204.881 8.03711 204.699 10.2227 204.699 12.8711C204.699 15.5078 204.881 17.6934 205.244 19.4277C205.608 21.1504 206.24 22.4629 207.143 23.3652C208.045 24.2676 209.305 24.7188 210.922 24.7188ZM233.609 24.1738V1.56836H230.797V0.707031H237.81L248.041 18.3027H248.111V1.56836H245.299V0.707031H251.961V1.56836H249.183V25.5449H248.252L234.752 2.28906H234.681V24.1738H237.459V25H230.797V24.1738H233.609ZM278.234 2.35938L279.499 0.953125H280.079V7.17578H279.253C278.89 5.32422 278.064 3.83008 276.775 2.69336C275.486 1.55664 273.874 0.988281 271.941 0.988281C271.214 0.988281 270.534 1.13477 269.902 1.42773C269.269 1.70898 268.718 2.07227 268.249 2.51758C267.792 2.96289 267.429 3.42578 267.159 3.90625C266.175 5.76953 265.683 9.05664 265.683 13.7676C265.683 15.4902 265.759 16.9902 265.911 18.2676C266.064 19.5332 266.368 20.6641 266.825 21.6602C267.282 22.6445 267.939 23.4004 268.794 23.9277C269.65 24.4551 270.757 24.7188 272.116 24.7188C273.546 24.7188 274.63 24.4551 275.368 23.9277C276.107 23.3887 276.593 22.6738 276.827 21.7832C277.073 20.8809 277.196 19.7559 277.196 18.4082V17.2656H273.698V16.4043H283.454V17.2656H281.257C280.917 22.7852 277.823 25.5449 271.976 25.5449C270.359 25.5449 268.9 25.2109 267.599 24.543C266.31 23.875 265.214 22.9492 264.312 21.7656C263.409 20.582 262.724 19.2227 262.255 17.6875C261.798 16.1523 261.57 14.5 261.57 12.7305C261.57 11.0078 261.874 9.36719 262.484 7.80859C263.093 6.23828 263.907 4.89062 264.927 3.76562C265.946 2.62891 267.083 1.74414 268.337 1.11133C269.603 0.478516 270.862 0.162109 272.116 0.162109C273.37 0.162109 274.507 0.349609 275.527 0.724609C276.558 1.08789 277.46 1.63281 278.234 2.35938ZM302.397 25.5449C300.909 25.5449 299.532 25.1992 298.266 24.5078C297.001 23.8164 295.899 22.8555 294.962 21.625C294.024 20.3945 293.303 19.0176 292.8 17.4941C292.307 15.9707 292.061 14.418 292.061 12.8359C292.061 11.2422 292.307 9.68359 292.8 8.16016C293.292 6.63672 294.001 5.27148 294.926 4.06445C295.852 2.8457 296.948 1.89062 298.214 1.19922C299.491 0.507813 300.885 0.162109 302.397 0.162109C303.909 0.162109 305.309 0.513672 306.598 1.2168C307.887 1.91992 308.983 2.86328 309.885 4.04688C310.788 5.23047 311.485 6.5957 311.977 8.14258C312.481 9.67773 312.733 11.2422 312.733 12.8359C312.733 14.418 312.481 15.9824 311.977 17.5293C311.473 19.0645 310.759 20.4355 309.833 21.6426C308.919 22.8496 307.823 23.8047 306.546 24.5078C305.268 25.1992 303.885 25.5449 302.397 25.5449ZM302.397 24.7188C304.014 24.7188 305.274 24.2676 306.176 23.3652C307.079 22.4629 307.712 21.1504 308.075 19.4277C308.438 17.6934 308.62 15.5078 308.62 12.8711C308.62 10.2227 308.438 8.03711 308.075 6.31445C307.712 4.58008 307.079 3.26172 306.176 2.35938C305.286 1.44531 304.026 0.988281 302.397 0.988281C300.768 0.988281 299.503 1.44531 298.6 2.35938C297.71 3.26172 297.083 4.58008 296.719 6.31445C296.356 8.03711 296.175 10.2227 296.175 12.8711C296.175 15.5078 296.356 17.6934 296.719 19.4277C297.083 21.1504 297.716 22.4629 298.618 23.3652C299.52 24.2676 300.78 24.7188 302.397 24.7188Z" fill="black"/>
</svg>
